<svg xmlns="http://www.w3.org/2000/svg" xmlns:xlink="http://www.w3.org/1999/xlink" width="191" zoomAndPan="magnify" viewBox="0 0 143.25 143.249998" height="191" preserveAspectRatio="xMidYMid meet" version="1.0"><defs><g/><clipPath id="f76d0d507c"><path d="M 0 0 L 142.503906 0 L 142.503906 142.503906 L 0 142.503906 Z M 0 0 " clip-rule="nonzero"/></clipPath><clipPath id="c730882c0c"><path d="M 71.25 0 C 31.902344 0 0 31.902344 0 71.25 C 0 110.601562 31.902344 142.503906 71.25 142.503906 C 110.601562 142.503906 142.503906 110.601562 142.503906 71.25 C 142.503906 31.902344 110.601562 0 71.25 0 Z M 71.25 0 " clip-rule="nonzero"/></clipPath><clipPath id="29784e77c6"><path d="M 0 0 L 142.503906 0 L 142.503906 142.503906 L 0 142.503906 Z M 0 0 " clip-rule="nonzero"/></clipPath><clipPath id="f7cccf35df"><path d="M 71.25 0 C 31.902344 0 0 31.902344 0 71.25 C 0 110.601562 31.902344 142.503906 71.25 142.503906 C 110.601562 142.503906 142.503906 110.601562 142.503906 71.25 C 142.503906 31.902344 110.601562 0 71.25 0 Z M 71.25 0 " clip-rule="nonzero"/></clipPath><clipPath id="04d6f14853"><rect x="0" width="143" y="0" height="143"/></clipPath><clipPath id="e1506e885f"><path d="M 26.125 26.125 L 115.441406 26.125 L 115.441406 115.441406 L 26.125 115.441406 Z M 26.125 26.125 " clip-rule="nonzero"/></clipPath><clipPath id="cddb1e8f57"><path d="M 70.78125 26.125 C 46.121094 26.125 26.125 46.121094 26.125 70.78125 C 26.125 95.445312 46.121094 115.441406 70.78125 115.441406 C 95.445312 115.441406 115.441406 95.445312 115.441406 70.78125 C 115.441406 46.121094 95.445312 26.125 70.78125 26.125 Z M 70.78125 26.125 " clip-rule="nonzero"/></clipPath><clipPath id="ed017719d9"><path d="M 0.125 0.125 L 89.441406 0.125 L 89.441406 89.441406 L 0.125 89.441406 Z M 0.125 0.125 " clip-rule="nonzero"/></clipPath><clipPath id="a0684a6a75"><path d="M 44.78125 0.125 C 20.121094 0.125 0.125 20.121094 0.125 44.78125 C 0.125 69.445312 20.121094 89.441406 44.78125 89.441406 C 69.445312 89.441406 89.441406 69.445312 89.441406 44.78125 C 89.441406 20.121094 69.445312 0.125 44.78125 0.125 Z M 44.78125 0.125 " clip-rule="nonzero"/></clipPath><clipPath id="a68e3d5f21"><rect x="0" width="90" y="0" height="90"/></clipPath><clipPath id="647e6c7873"><path d="M 43 45.636719 L 99 45.636719 L 99 97 L 43 97 Z M 43 45.636719 " clip-rule="nonzero"/></clipPath><clipPath id="1a5f40e9e2"><path d="M 132 83 L 137 83 L 137 86 L 132 86 Z M 132 83 " clip-rule="nonzero"/></clipPath><clipPath id="ecc9fb3497"><path d="M 137.921875 55.457031 L 137.011719 87.527344 L 121.347656 87.082031 L 122.261719 55.011719 Z M 137.921875 55.457031 " clip-rule="nonzero"/></clipPath><clipPath id="40cdf6291e"><path d="M 137.921875 55.457031 L 137.011719 87.527344 L 121.347656 87.082031 L 122.261719 55.011719 Z M 137.921875 55.457031 " clip-rule="nonzero"/></clipPath><clipPath id="f713553e07"><path d="M 122 55 L 137 55 L 137 88 L 122 88 Z M 122 55 " clip-rule="nonzero"/></clipPath><clipPath id="b39dac32a4"><path d="M 137.921875 55.457031 L 137.011719 87.527344 L 121.347656 87.082031 L 122.261719 55.011719 Z M 137.921875 55.457031 " clip-rule="nonzero"/></clipPath><clipPath id="079752c654"><path d="M 137.921875 55.457031 L 137.011719 87.527344 L 121.347656 87.082031 L 122.261719 55.011719 Z M 137.921875 55.457031 " clip-rule="nonzero"/></clipPath><clipPath id="fd1b9b6d2c"><path d="M 124 74 L 138 74 L 138 88 L 124 88 Z M 124 74 " clip-rule="nonzero"/></clipPath><clipPath id="40a3b05c47"><path d="M 137.921875 55.457031 L 137.011719 87.527344 L 121.347656 87.082031 L 122.261719 55.011719 Z M 137.921875 55.457031 " clip-rule="nonzero"/></clipPath><clipPath id="f6c2fab387"><path d="M 137.921875 55.457031 L 137.011719 87.527344 L 121.347656 87.082031 L 122.261719 55.011719 Z M 137.921875 55.457031 " clip-rule="nonzero"/></clipPath><clipPath id="f63d4470f4"><path d="M 4 57 L 9 57 L 9 60 L 4 60 Z M 4 57 " clip-rule="nonzero"/></clipPath><clipPath id="9aa4ac1206"><path d="M 6.289062 87.351562 L 3.800781 55.367188 L 19.421875 54.148438 L 21.910156 86.132812 Z M 6.289062 87.351562 " clip-rule="nonzero"/></clipPath><clipPath id="b8a67a72c7"><path d="M 6.289062 87.351562 L 3.800781 55.367188 L 19.421875 54.148438 L 21.910156 86.132812 Z M 6.289062 87.351562 " clip-rule="nonzero"/></clipPath><clipPath id="b549bd88d4"><path d="M 4 54 L 21 54 L 21 87 L 4 87 Z M 4 54 " clip-rule="nonzero"/></clipPath><clipPath id="5d00d3e1ac"><path d="M 6.289062 87.351562 L 3.800781 55.367188 L 19.421875 54.148438 L 21.910156 86.132812 Z M 6.289062 87.351562 " clip-rule="nonzero"/></clipPath><clipPath id="fd13a2854a"><path d="M 6.289062 87.351562 L 3.800781 55.367188 L 19.421875 54.148438 L 21.910156 86.132812 Z M 6.289062 87.351562 " clip-rule="nonzero"/></clipPath><clipPath id="208e4bb3ae"><path d="M 4 55 L 18 55 L 18 68 L 4 68 Z M 4 55 " clip-rule="nonzero"/></clipPath><clipPath id="aeba07171a"><path d="M 6.289062 87.351562 L 3.800781 55.367188 L 19.421875 54.148438 L 21.910156 86.132812 Z M 6.289062 87.351562 " clip-rule="nonzero"/></clipPath><clipPath id="304c75f454"><path d="M 6.289062 87.351562 L 3.800781 55.367188 L 19.421875 54.148438 L 21.910156 86.132812 Z M 6.289062 87.351562 " clip-rule="nonzero"/></clipPath></defs><g clip-path="url(#f76d0d507c)"><g clip-path="url(#c730882c0c)"><g transform="matrix(1, 0, 0, 1, -0, 0.000000000000001447)"><g clip-path="url(#04d6f14853)"><g clip-path="url(#29784e77c6)"><g clip-path="url(#f7cccf35df)"><path fill="#c90f16" d="M 0 0 L 142.503906 0 L 142.503906 142.503906 L 0 142.503906 Z M 0 0 " fill-opacity="1" fill-rule="nonzero"/></g></g></g></g></g></g><g clip-path="url(#e1506e885f)"><g clip-path="url(#cddb1e8f57)"><g transform="matrix(1, 0, 0, 1, 26, 26)"><g clip-path="url(#a68e3d5f21)"><g clip-path="url(#ed017719d9)"><g clip-path="url(#a0684a6a75)"><path fill="#ffffff" d="M 0.125 0.125 L 89.441406 0.125 L 89.441406 89.441406 L 0.125 89.441406 Z M 0.125 0.125 " fill-opacity="1" fill-rule="nonzero"/></g></g></g></g></g></g><g clip-path="url(#647e6c7873)"><path fill="#c90f16" d="M 92.703125 71.273438 C 92.703125 72.28125 92.703125 73.300781 92.703125 74.308594 C 92.703125 81.320312 92.703125 88.34375 92.703125 95.355469 C 92.703125 96.167969 92.011719 96.859375 91.195312 96.859375 C 86.191406 96.859375 81.183594 96.859375 76.175781 96.859375 C 75.359375 96.859375 74.667969 96.167969 74.667969 95.355469 C 74.667969 91.707031 74.667969 88.046875 74.667969 84.398438 C 72.390625 84.390625 70.117188 84.390625 67.839844 84.378906 C 67.839844 88.035156 67.839844 91.695312 67.839844 95.355469 C 67.839844 96.167969 67.148438 96.859375 66.332031 96.859375 C 61.382812 96.859375 56.433594 96.859375 51.492188 96.859375 C 50.675781 96.859375 49.984375 96.167969 49.984375 95.355469 C 49.984375 94.347656 49.984375 93.328125 49.984375 92.320312 C 49.984375 85.304688 49.984375 78.285156 49.984375 71.273438 C 49.984375 69.324219 53 69.335938 53 71.273438 C 53 72.28125 53 73.300781 53 74.308594 C 53 80.820312 53 87.335938 53 93.847656 C 56.941406 93.847656 60.882812 93.847656 64.824219 93.847656 C 64.824219 90.1875 64.824219 86.53125 64.824219 82.871094 C 64.824219 82.054688 65.515625 81.363281 66.332031 81.363281 C 69.617188 81.375 72.902344 81.386719 76.1875 81.398438 C 77.003906 81.398438 77.695312 82.089844 77.695312 82.90625 C 77.695312 86.550781 77.695312 90.199219 77.695312 93.847656 C 81.691406 93.847656 85.691406 93.847656 89.691406 93.847656 C 89.691406 93.339844 89.691406 92.828125 89.691406 92.320312 C 89.691406 85.304688 89.691406 78.285156 89.691406 71.273438 C 89.691406 69.335938 92.703125 69.335938 92.703125 71.273438 Z M 98.300781 69.640625 C 90.722656 62.796875 83.152344 55.957031 75.585938 49.113281 C 74.511719 48.140625 73.445312 47.175781 72.371094 46.203125 C 71.746094 45.636719 70.863281 45.636719 70.242188 46.203125 C 62.640625 53.054688 55.039062 59.898438 47.4375 66.742188 C 46.363281 67.714844 45.285156 68.675781 44.210938 69.652344 C 42.757812 70.953125 44.898438 73.082031 46.339844 71.78125 C 53.941406 64.9375 61.527344 58.097656 69.128906 51.253906 C 69.855469 50.609375 70.570312 49.964844 71.292969 49.308594 C 78.507812 55.832031 85.726562 62.34375 92.941406 68.871094 C 94.015625 69.84375 95.082031 70.808594 96.15625 71.78125 C 97.597656 73.074219 99.738281 70.953125 98.300781 69.640625 Z M 86.710938 54.347656 C 86.710938 53.746094 86.710938 53.160156 86.710938 52.558594 C 87.933594 52.558594 89.15625 52.558594 90.382812 52.558594 C 90.382812 55.253906 90.382812 57.949219 90.382812 60.644531 C 90.382812 62.582031 93.394531 62.59375 93.394531 60.644531 C 93.394531 57.453125 93.394531 54.257812 93.394531 51.050781 C 93.394531 50.234375 92.703125 49.546875 91.886719 49.546875 C 89.65625 49.546875 87.4375 49.546875 85.203125 49.546875 C 84.386719 49.546875 83.699219 50.234375 83.699219 51.050781 C 83.699219 52.148438 83.699219 53.25 83.699219 54.347656 C 83.699219 56.296875 86.710938 56.296875 86.710938 54.347656 Z M 86.710938 54.347656 " fill-opacity="1" fill-rule="nonzero"/></g><g clip-path="url(#1a5f40e9e2)"><g clip-path="url(#ecc9fb3497)"><g clip-path="url(#40cdf6291e)"><path fill="#ffffff" d="M 132.898438 84.953125 C 132.898438 84.90625 132.867188 84.917969 132.902344 84.886719 L 134.769531 83.179688 C 134.804688 83.148438 134.847656 83.132812 134.890625 83.132812 L 135.539062 83.152344 C 135.992188 83.167969 136.351562 83.550781 136.335938 84.011719 L 136.328125 84.386719 C 136.3125 84.847656 135.929688 85.210938 135.46875 85.195312 L 133.066406 85.128906 C 132.996094 85.125 132.933594 85.082031 132.910156 85.015625 C 132.902344 84.996094 132.898438 84.972656 132.898438 84.953125 Z M 134.949219 83.476562 L 133.5 84.796875 L 135.476562 84.851562 C 135.75 84.859375 135.976562 84.644531 135.984375 84.375 L 135.996094 84 C 136.003906 83.730469 135.792969 83.503906 135.53125 83.496094 L 134.949219 83.480469 Z M 134.949219 83.476562 " fill-opacity="1" fill-rule="nonzero"/></g></g></g><g clip-path="url(#f713553e07)"><g clip-path="url(#b39dac32a4)"><g clip-path="url(#079752c654)"><path fill="#ffffff" d="M 130.589844 87.203125 C 130.765625 87.1875 130.9375 87.113281 131.074219 87 C 132.757812 85.441406 134.738281 83.601562 136.175781 82.210938 C 136.519531 81.871094 136.699219 81.683594 136.6875 81.667969 C 136.671875 81.652344 136.46875 81.8125 136.097656 82.125 C 134.707031 83.300781 132.914062 84.914062 131.308594 86.339844 C 131.15625 86.472656 131 86.621094 130.839844 86.753906 C 130.703125 86.855469 130.523438 86.886719 130.359375 86.835938 C 129.964844 86.707031 129.863281 86.195312 130.179688 85.929688 C 130.296875 85.824219 130.414062 85.71875 130.53125 85.613281 C 130.660156 85.5 130.582031 85.289062 130.410156 85.285156 C 129.839844 85.261719 129.230469 85.246094 128.640625 85.222656 C 128.523438 85.214844 128.40625 85.203125 128.289062 85.1875 C 126.953125 85.015625 125.820312 84.34375 124.957031 83.308594 C 124.894531 83.234375 124.832031 83.15625 124.769531 83.082031 C 124.695312 82.992188 124.628906 82.894531 124.558594 82.804688 C 124.4375 82.625 124.316406 82.445312 124.203125 82.257812 C 124.164062 82.183594 124.121094 82.109375 124.082031 82.039062 C 123.992188 81.875 123.910156 81.707031 123.832031 81.539062 C 123.738281 81.316406 123.648438 81.09375 123.574219 80.867188 C 122.9375 78.96875 123.054688 76.910156 123.398438 74.96875 C 124.148438 70.863281 125.894531 66.917969 126.355469 62.816406 C 126.605469 60.617188 126.390625 58.296875 125.171875 56.445312 C 124.738281 55.800781 124.460938 55.492188 124.066406 55.132812 C 124.003906 55.082031 123.972656 55.058594 123.964844 55.0625 C 123.960938 55.066406 123.984375 55.101562 124.03125 55.164062 C 124.082031 55.230469 124.160156 55.316406 124.253906 55.4375 C 125.625 57.089844 126.1875 59.050781 126.125 61.253906 C 126.054688 63.707031 125.371094 66.082031 124.683594 68.425781 C 123.574219 72.242188 121.875 76.839844 123.082031 80.804688 C 123.171875 81.097656 123.28125 81.386719 123.40625 81.671875 C 123.492188 81.867188 123.589844 82.0625 123.691406 82.25 C 123.746094 82.34375 123.796875 82.4375 123.851562 82.53125 C 123.917969 82.632812 123.984375 82.742188 124.054688 82.84375 C 124.160156 83.003906 124.277344 83.160156 124.394531 83.3125 C 124.472656 83.40625 124.546875 83.503906 124.628906 83.59375 C 125.582031 84.726562 126.863281 85.453125 128.335938 85.597656 C 128.460938 85.613281 128.589844 85.621094 128.714844 85.625 C 129.121094 85.632812 129.535156 85.640625 129.933594 85.652344 C 129.292969 86.222656 129.734375 87.265625 130.589844 87.203125 Z M 130.589844 87.203125 " fill-opacity="1" fill-rule="nonzero"/></g></g></g><g clip-path="url(#fd1b9b6d2c)"><g clip-path="url(#40a3b05c47)"><g clip-path="url(#f6c2fab387)"><path fill="#ffffff" d="M 130.667969 87.148438 C 130.824219 87.121094 130.980469 87.042969 131.097656 86.933594 C 132.792969 85.433594 134.9375 83.511719 136.824219 81.8125 C 136.949219 81.699219 137.039062 81.550781 137.085938 81.390625 C 137.175781 81.082031 137.089844 80.734375 136.863281 80.503906 C 136.691406 80.328125 136.515625 80.148438 136.339844 79.964844 C 134.753906 78.335938 133.132812 76.675781 131.515625 75.027344 C 131.152344 74.617188 130.511719 74.609375 130.136719 75.011719 C 129.816406 75.347656 129.804688 75.902344 130.109375 76.25 C 128.34375 76.203125 126.707031 76.164062 124.992188 76.109375 C 124.9375 76.109375 124.882812 76.117188 124.832031 76.128906 C 124.609375 76.1875 124.441406 76.394531 124.425781 76.625 C 124.398438 77.410156 124.375 78.195312 124.347656 78.996094 C 124.34375 79.121094 124.441406 79.222656 124.5625 79.226562 C 125.980469 79.269531 127.429688 79.3125 128.859375 79.351562 C 128.886719 79.355469 128.964844 79.355469 128.992188 79.355469 C 129.261719 79.359375 129.507812 79.5625 129.5625 79.824219 C 129.574219 79.875 129.578125 79.925781 129.578125 79.976562 C 129.570312 80.1875 129.566406 80.398438 129.558594 80.609375 C 129.546875 81.046875 129.535156 81.484375 129.523438 81.921875 C 129.519531 81.960938 129.519531 81.996094 129.511719 82.027344 C 129.46875 82.277344 129.25 82.480469 129 82.515625 C 128.964844 82.519531 128.921875 82.519531 128.882812 82.519531 C 128.796875 82.515625 128.710938 82.515625 128.625 82.511719 C 127.683594 82.484375 126.726562 82.457031 125.789062 82.433594 C 125.664062 82.429688 125.5625 82.527344 125.558594 82.648438 C 125.554688 82.773438 125.652344 82.875 125.773438 82.878906 C 126.800781 82.910156 127.839844 82.941406 128.871094 82.96875 C 129.152344 82.984375 129.4375 82.878906 129.644531 82.683594 C 129.835938 82.5 129.957031 82.246094 129.972656 81.984375 C 129.992188 81.390625 130.007812 80.796875 130.027344 80.199219 C 130.027344 80.085938 130.039062 79.972656 130.027344 79.859375 C 129.988281 79.359375 129.558594 78.9375 129.058594 78.90625 C 127.644531 78.859375 126.207031 78.824219 124.800781 78.785156 C 124.828125 78.0625 124.84375 77.347656 124.871094 76.636719 C 124.871094 76.632812 124.875 76.632812 124.875 76.628906 C 124.886719 76.582031 124.933594 76.550781 124.980469 76.550781 C 126.878906 76.601562 128.683594 76.664062 130.652344 76.71875 C 130.710938 76.71875 130.773438 76.699219 130.816406 76.652344 C 130.90625 76.566406 130.910156 76.421875 130.820312 76.332031 C 130.738281 76.246094 130.652344 76.160156 130.566406 76.074219 L 130.503906 76.011719 L 130.488281 75.992188 C 130.414062 75.921875 130.363281 75.832031 130.347656 75.734375 C 130.320312 75.585938 130.363281 75.429688 130.46875 75.320312 C 130.632812 75.132812 130.941406 75.117188 131.128906 75.28125 C 132.769531 76.945312 134.417969 78.621094 136.035156 80.257812 C 136.214844 80.4375 136.390625 80.617188 136.566406 80.792969 C 136.628906 80.855469 136.671875 80.933594 136.695312 81.019531 C 136.726562 81.148438 136.707031 81.285156 136.644531 81.398438 C 136.609375 81.460938 136.558594 81.507812 136.503906 81.554688 C 134.839844 83.089844 132.765625 85.003906 131.320312 86.355469 C 131.195312 86.46875 131.078125 86.582031 130.957031 86.691406 C 130.859375 86.792969 130.757812 86.867188 130.621094 86.890625 C 130.25 86.96875 129.902344 86.667969 129.917969 86.296875 C 129.921875 86.132812 129.992188 85.984375 130.105469 85.875 C 130.222656 85.761719 130.351562 85.640625 130.464844 85.53125 C 130.519531 85.480469 130.480469 85.386719 130.40625 85.386719 C 128.71875 85.378906 127.929688 85.421875 130.1875 85.542969 C 130.117188 85.605469 130.046875 85.667969 129.976562 85.730469 C 129.816406 85.871094 129.71875 86.066406 129.703125 86.285156 C 129.664062 86.8125 130.144531 87.238281 130.667969 87.148438 Z M 130.667969 87.148438 " fill-opacity="1" fill-rule="nonzero"/></g></g></g><g fill="#ffffff" fill-opacity="1"><g transform="translate(18.109716, 50.410224)"><g><path d="M -5.140625 -6.828125 C -4.046875 -9.222656 -2.359375 -9.898438 -0.078125 -8.859375 C 2.203125 -7.804688 2.796875 -6.082031 1.703125 -3.6875 L 0.34375 -0.734375 L -6.5 -3.875 Z M -0.28125 -3.671875 L 0.0625 -4.40625 C 0.476562 -5.332031 0.1875 -6.023438 -0.8125 -6.484375 L -1.40625 -6.75 C -2.394531 -7.207031 -3.097656 -6.972656 -3.515625 -6.046875 L -3.859375 -5.3125 Z M -0.28125 -3.671875 "/></g></g></g><g fill="#ffffff" fill-opacity="1"><g transform="translate(22.475162, 41.270572)"><g><path d="M 3.359375 -4.78125 L 2.296875 -5.140625 L 0.78125 -2.984375 L 1.484375 -2.109375 L 0.0625 -0.09375 L -4.53125 -6.671875 L -2.921875 -8.96875 L 4.828125 -6.890625 Z M -0.296875 -4.375 L 0.640625 -5.703125 L -2 -6.59375 L -2.03125 -6.546875 Z M -0.296875 -4.375 "/></g></g></g><g fill="#ffffff" fill-opacity="1"><g transform="translate(28.450932, 33.071747)"><g><path d="M -4.765625 -5.875 L -3.078125 -7.578125 L 0.90625 -3.640625 L 3.625 -6.40625 L 4.984375 -5.046875 L 0.578125 -0.578125 Z M -4.765625 -5.875 "/></g></g></g><g fill="#ffffff" fill-opacity="1"><g transform="translate(34.847713, 26.800706)"><g><path d="M -3.78125 -6.5625 L -1.84375 -7.984375 L 1.453125 -3.453125 L 4.59375 -5.734375 L 5.734375 -4.1875 L 0.65625 -0.484375 Z M -3.78125 -6.5625 "/></g></g></g><g fill="#ffffff" fill-opacity="1"><g transform="translate(42.117261, 21.59752)"><g><path d="M 5.234375 -2.609375 L 4.484375 -3.421875 L 2.125 -2.234375 L 2.3125 -1.140625 L 0.09375 -0.046875 L -0.796875 -8.015625 L 1.71875 -9.28125 L 7.53125 -3.75 Z M 1.828125 -3.984375 L 3.28125 -4.703125 L 1.390625 -6.75 L 1.34375 -6.734375 Z M 1.828125 -3.984375 "/></g></g></g><g fill="#ffffff" fill-opacity="1"><g transform="translate(51.267858, 17.236095)"><g><path d="M 1.640625 -8.46875 C 2.554688 -8.738281 3.367188 -8.773438 4.078125 -8.578125 C 4.785156 -8.378906 5.253906 -7.914062 5.484375 -7.1875 L 5.53125 -7.046875 L 3.359375 -6.40625 L 3.34375 -6.453125 C 3.28125 -6.660156 3.148438 -6.8125 2.953125 -6.90625 C 2.753906 -7 2.5 -7.003906 2.1875 -6.921875 C 1.882812 -6.828125 1.660156 -6.707031 1.515625 -6.5625 C 1.378906 -6.425781 1.332031 -6.289062 1.375 -6.15625 C 1.425781 -5.96875 1.578125 -5.859375 1.828125 -5.828125 C 2.085938 -5.804688 2.472656 -5.820312 2.984375 -5.875 C 3.617188 -5.9375 4.140625 -5.957031 4.546875 -5.9375 C 4.953125 -5.914062 5.335938 -5.796875 5.703125 -5.578125 C 6.066406 -5.367188 6.328125 -5.015625 6.484375 -4.515625 C 6.734375 -3.660156 6.628906 -2.941406 6.171875 -2.359375 C 5.722656 -1.773438 5.015625 -1.34375 4.046875 -1.0625 C 2.921875 -0.726562 1.988281 -0.65625 1.25 -0.84375 C 0.519531 -1.03125 0.015625 -1.601562 -0.265625 -2.5625 L 1.921875 -3.21875 C 2.023438 -2.863281 2.1875 -2.648438 2.40625 -2.578125 C 2.632812 -2.515625 2.953125 -2.539062 3.359375 -2.65625 C 3.640625 -2.738281 3.867188 -2.835938 4.046875 -2.953125 C 4.222656 -3.078125 4.285156 -3.238281 4.234375 -3.4375 C 4.179688 -3.613281 4.035156 -3.710938 3.796875 -3.734375 C 3.554688 -3.753906 3.179688 -3.742188 2.671875 -3.703125 C 2.046875 -3.660156 1.519531 -3.648438 1.09375 -3.671875 C 0.664062 -3.691406 0.265625 -3.816406 -0.109375 -4.046875 C -0.492188 -4.273438 -0.765625 -4.660156 -0.921875 -5.203125 C -1.148438 -5.992188 -1.015625 -6.664062 -0.515625 -7.21875 C -0.0234375 -7.769531 0.691406 -8.1875 1.640625 -8.46875 Z M 1.640625 -8.46875 "/></g></g></g><g fill="#ffffff" fill-opacity="1"><g transform="translate(60.554123, 14.762611)"><g/></g></g><g fill="#ffffff" fill-opacity="1"><g transform="translate(65.845081, 13.891683)"><g><path d="M 5.703125 -7.625 C 6.085938 -7.625 6.4375 -7.546875 6.75 -7.390625 C 7.070312 -7.234375 7.328125 -7.015625 7.515625 -6.734375 C 7.703125 -6.460938 7.796875 -6.148438 7.796875 -5.796875 C 7.816406 -4.867188 7.410156 -4.28125 6.578125 -4.03125 L 6.578125 -3.984375 C 7.546875 -3.773438 8.035156 -3.15625 8.046875 -2.125 C 8.054688 -1.726562 7.960938 -1.375 7.765625 -1.0625 C 7.578125 -0.757812 7.316406 -0.519531 6.984375 -0.34375 C 6.648438 -0.175781 6.285156 -0.09375 5.890625 -0.09375 L 0.8125 -0.015625 L 0.703125 -7.546875 Z M 3.140625 -4.640625 L 4.8125 -4.671875 C 4.96875 -4.671875 5.097656 -4.726562 5.203125 -4.84375 C 5.316406 -4.957031 5.375 -5.097656 5.375 -5.265625 L 5.375 -5.375 C 5.375 -5.53125 5.316406 -5.664062 5.203125 -5.78125 C 5.085938 -5.894531 4.953125 -5.953125 4.796875 -5.953125 L 3.125 -5.921875 Z M 3.1875 -1.796875 L 5.03125 -1.828125 C 5.1875 -1.828125 5.316406 -1.882812 5.421875 -2 C 5.535156 -2.125 5.59375 -2.269531 5.59375 -2.4375 L 5.59375 -2.546875 C 5.582031 -2.710938 5.519531 -2.847656 5.40625 -2.953125 C 5.300781 -3.066406 5.171875 -3.125 5.015625 -3.125 L 3.171875 -3.09375 Z M 3.1875 -1.796875 "/></g></g></g><g fill="#ffffff" fill-opacity="1"><g transform="translate(75.981565, 13.904387)"><g><path d="M 1.984375 -7.3125 L 8.40625 -6.28125 L 8.125 -4.484375 L 4.078125 -5.125 L 3.921875 -4.109375 L 7.390625 -3.5625 L 7.109375 -1.859375 L 3.640625 -2.40625 L 3.453125 -1.265625 L 7.578125 -0.609375 L 7.296875 1.171875 L 0.796875 0.125 Z M 1.984375 -7.3125 "/></g></g></g><g fill="#ffffff" fill-opacity="1"><g transform="translate(85.376039, 15.553474)"><g><path d="M 6.21875 -5.96875 C 7.125 -5.65625 7.804688 -5.210938 8.265625 -4.640625 C 8.734375 -4.078125 8.851562 -3.429688 8.625 -2.703125 L 8.578125 -2.5625 L 6.4375 -3.296875 L 6.453125 -3.34375 C 6.523438 -3.550781 6.503906 -3.75 6.390625 -3.9375 C 6.285156 -4.125 6.082031 -4.269531 5.78125 -4.375 C 5.476562 -4.476562 5.226562 -4.515625 5.03125 -4.484375 C 4.84375 -4.453125 4.726562 -4.367188 4.6875 -4.234375 C 4.625 -4.054688 4.6875 -3.878906 4.875 -3.703125 C 5.0625 -3.535156 5.378906 -3.328125 5.828125 -3.078125 C 6.367188 -2.753906 6.800781 -2.46875 7.125 -2.21875 C 7.445312 -1.96875 7.695312 -1.648438 7.875 -1.265625 C 8.050781 -0.878906 8.0625 -0.4375 7.90625 0.0625 C 7.613281 0.90625 7.113281 1.429688 6.40625 1.640625 C 5.695312 1.859375 4.867188 1.804688 3.921875 1.484375 C 2.804688 1.097656 2.003906 0.613281 1.515625 0.03125 C 1.023438 -0.539062 0.941406 -1.300781 1.265625 -2.25 L 3.4375 -1.515625 C 3.3125 -1.160156 3.320312 -0.890625 3.46875 -0.703125 C 3.613281 -0.523438 3.878906 -0.367188 4.265625 -0.234375 C 4.554688 -0.140625 4.804688 -0.0859375 5.015625 -0.078125 C 5.234375 -0.078125 5.375 -0.171875 5.4375 -0.359375 C 5.5 -0.535156 5.4375 -0.703125 5.25 -0.859375 C 5.070312 -1.015625 4.765625 -1.21875 4.328125 -1.46875 C 3.785156 -1.800781 3.347656 -2.097656 3.015625 -2.359375 C 2.679688 -2.617188 2.425781 -2.953125 2.25 -3.359375 C 2.070312 -3.773438 2.070312 -4.25 2.25 -4.78125 C 2.519531 -5.5625 3.015625 -6.03125 3.734375 -6.1875 C 4.460938 -6.351562 5.289062 -6.28125 6.21875 -5.96875 Z M 6.21875 -5.96875 "/></g></g></g><g fill="#ffffff" fill-opacity="1"><g transform="translate(94.357289, 18.763421)"><g><path d="M 7.1875 -2.453125 L 4.515625 2.453125 L 2.390625 1.296875 L 5.0625 -3.609375 L 2.890625 -4.78125 L 3.8125 -6.484375 L 10.265625 -2.984375 L 9.34375 -1.28125 Z M 7.1875 -2.453125 "/></g></g></g><g fill="#ffffff" fill-opacity="1"><g transform="translate(102.673705, 23.577623)"><g/></g></g><g fill="#ffffff" fill-opacity="1"><g transform="translate(107.031231, 26.703066)"><g><path d="M 4.203125 4.0625 L 4.703125 3.078125 L 2.8125 1.25 L 1.84375 1.796875 L 0.078125 0.078125 L 7.28125 -3.421875 L 9.3125 -1.453125 L 6.03125 5.84375 Z M 4.359375 0.40625 L 5.515625 1.53125 L 6.8125 -0.9375 L 6.78125 -0.96875 Z M 4.359375 0.40625 "/></g></g></g><g fill="#ffffff" fill-opacity="1"><g transform="translate(114.203048, 33.855402)"><g><path d="M 8.484375 -1.09375 C 10.023438 1.050781 9.773438 2.859375 7.734375 4.328125 C 5.691406 5.785156 3.898438 5.441406 2.359375 3.296875 L 0.46875 0.65625 L 6.59375 -3.734375 Z M 3.34375 1.578125 L 3.8125 2.234375 C 4.40625 3.054688 5.144531 3.148438 6.03125 2.515625 L 6.5625 2.125 C 7.445312 1.5 7.59375 0.773438 7 -0.046875 L 6.53125 -0.703125 Z M 3.34375 1.578125 "/></g></g></g><g fill="#ffffff" fill-opacity="1"><g transform="translate(119.995511, 42.151477)"><g><path d="M 6.25 6.234375 C 5.3125 6.671875 4.460938 6.707031 3.703125 6.34375 C 2.953125 5.988281 2.320312 5.269531 1.8125 4.1875 C 1.3125 3.09375 1.164062 2.140625 1.375 1.328125 C 1.582031 0.515625 2.15625 -0.109375 3.09375 -0.546875 L 7.171875 -2.453125 L 8.1875 -0.265625 L 4.140625 1.625 C 3.742188 1.8125 3.484375 2.0625 3.359375 2.375 C 3.234375 2.6875 3.257812 3.035156 3.4375 3.421875 C 3.613281 3.804688 3.863281 4.050781 4.1875 4.15625 C 4.519531 4.257812 4.878906 4.222656 5.265625 4.046875 L 9.3125 2.15625 L 10.328125 4.328125 Z M 6.25 6.234375 "/></g></g></g><g fill="#ffffff" fill-opacity="1"><g transform="translate(124.602373, 93.894866)"><g><path d="M 4.75 7.125 C 3.519531 9.445312 1.796875 10.019531 -0.421875 8.84375 C -2.640625 7.664062 -3.132812 5.914062 -1.90625 3.59375 L -0.375 0.71875 L 6.28125 4.25 Z M 0.09375 3.6875 L -0.296875 4.40625 C -0.765625 5.300781 -0.519531 6.003906 0.4375 6.515625 L 1.015625 6.828125 C 1.972656 7.328125 2.6875 7.128906 3.15625 6.234375 L 3.546875 5.515625 Z M 0.09375 3.6875 "/></g></g></g><g fill="#ffffff" fill-opacity="1"><g transform="translate(119.729297, 102.774246)"><g><path d="M -3.609375 4.59375 L -2.59375 5 L -0.953125 2.921875 L -1.59375 2.03125 L -0.0625 0.078125 L 4.15625 6.90625 L 2.40625 9.109375 L -5.203125 6.609375 Z M 0.046875 4.375 L -0.953125 5.65625 L 1.640625 6.703125 L 1.671875 6.65625 Z M 0.046875 4.375 "/></g></g></g><g fill="#ffffff" fill-opacity="1"><g transform="translate(113.301421, 110.623634)"><g><path d="M 4.4375 6.140625 L 2.65625 7.75 L -1.109375 3.578125 L -3.984375 6.171875 L -5.265625 4.75 L -0.609375 0.546875 Z M 4.4375 6.140625 "/></g></g></g><g fill="#ffffff" fill-opacity="1"><g transform="translate(106.561733, 116.524598)"><g><path d="M 3.40625 6.765625 L 1.390625 8.078125 L -1.65625 3.359375 L -4.90625 5.46875 L -5.953125 3.859375 L -0.6875 0.4375 Z M 3.40625 6.765625 "/></g></g></g><g fill="#ffffff" fill-opacity="1"><g transform="translate(99.010784, 121.310259)"><g><path d="M -5.375 2.296875 L -4.65625 3.15625 L -2.234375 2.109375 L -2.375 1.015625 L -0.09375 0.046875 L 0.34375 8.046875 L -2.25 9.15625 L -7.71875 3.3125 Z M -2.046875 3.875 L -3.546875 4.515625 L -1.765625 6.65625 L -1.71875 6.640625 Z M -2.046875 3.875 "/></g></g></g><g fill="#ffffff" fill-opacity="1"><g transform="translate(89.629157, 125.149602)"><g><path d="M -2.109375 8.359375 C -3.046875 8.578125 -3.859375 8.566406 -4.546875 8.328125 C -5.242188 8.085938 -5.691406 7.601562 -5.890625 6.875 L -5.921875 6.734375 L -3.703125 6.21875 L -3.6875 6.265625 C -3.632812 6.484375 -3.515625 6.644531 -3.328125 6.75 C -3.140625 6.851562 -2.890625 6.863281 -2.578125 6.78125 C -2.265625 6.707031 -2.035156 6.601562 -1.890625 6.46875 C -1.742188 6.34375 -1.6875 6.210938 -1.71875 6.078125 C -1.757812 5.890625 -1.90625 5.773438 -2.15625 5.734375 C -2.414062 5.691406 -2.800781 5.679688 -3.3125 5.703125 C -3.945312 5.722656 -4.46875 5.710938 -4.875 5.671875 C -5.28125 5.628906 -5.65625 5.488281 -6 5.25 C -6.351562 5.007812 -6.59375 4.644531 -6.71875 4.15625 C -6.925781 3.28125 -6.785156 2.5625 -6.296875 2 C -5.816406 1.445312 -5.085938 1.054688 -4.109375 0.828125 C -2.960938 0.554688 -2.023438 0.535156 -1.296875 0.765625 C -0.578125 1.003906 -0.101562 1.613281 0.125 2.59375 L -2.09375 3.109375 C -2.175781 2.742188 -2.328125 2.519531 -2.546875 2.4375 C -2.773438 2.351562 -3.09375 2.359375 -3.5 2.453125 C -3.800781 2.523438 -4.039062 2.617188 -4.21875 2.734375 C -4.394531 2.847656 -4.457031 3 -4.40625 3.1875 C -4.363281 3.375 -4.222656 3.484375 -3.984375 3.515625 C -3.753906 3.554688 -3.382812 3.566406 -2.875 3.546875 C -2.238281 3.535156 -1.707031 3.550781 -1.28125 3.59375 C -0.863281 3.644531 -0.472656 3.796875 -0.109375 4.046875 C 0.242188 4.304688 0.488281 4.707031 0.625 5.25 C 0.8125 6.050781 0.640625 6.710938 0.109375 7.234375 C -0.421875 7.765625 -1.160156 8.140625 -2.109375 8.359375 Z M -2.109375 8.359375 "/></g></g></g><g fill="#ffffff" fill-opacity="1"><g transform="translate(80.21836, 127.096352)"><g/></g></g><g fill="#ffffff" fill-opacity="1"><g transform="translate(74.88676, 127.668027)"><g><path d="M -6.125 7.296875 C -6.507812 7.273438 -6.851562 7.175781 -7.15625 7 C -7.46875 6.832031 -7.707031 6.601562 -7.875 6.3125 C -8.050781 6.019531 -8.132812 5.695312 -8.125 5.34375 C -8.082031 4.414062 -7.640625 3.851562 -6.796875 3.65625 L -6.796875 3.609375 C -7.742188 3.347656 -8.195312 2.703125 -8.15625 1.671875 C -8.144531 1.273438 -8.03125 0.925781 -7.8125 0.625 C -7.601562 0.332031 -7.328125 0.113281 -6.984375 -0.03125 C -6.648438 -0.1875 -6.285156 -0.253906 -5.890625 -0.234375 L -0.8125 -0.03125 L -1.125 7.5 Z M -3.40625 4.46875 L -5.078125 4.390625 C -5.234375 4.390625 -5.367188 4.441406 -5.484375 4.546875 C -5.597656 4.660156 -5.660156 4.800781 -5.671875 4.96875 L -5.671875 5.078125 C -5.671875 5.234375 -5.617188 5.367188 -5.515625 5.484375 C -5.410156 5.609375 -5.28125 5.671875 -5.125 5.671875 L -3.453125 5.75 Z M -3.296875 1.625 L -5.140625 1.546875 C -5.296875 1.535156 -5.425781 1.582031 -5.53125 1.6875 C -5.644531 1.800781 -5.707031 1.941406 -5.71875 2.109375 L -5.71875 2.21875 C -5.726562 2.382812 -5.679688 2.523438 -5.578125 2.640625 C -5.472656 2.765625 -5.34375 2.832031 -5.1875 2.84375 L -3.34375 2.921875 Z M -3.296875 1.625 "/></g></g></g><g fill="#ffffff" fill-opacity="1"><g transform="translate(64.767075, 127.084667)"><g><path d="M -2.40625 7.1875 L -8.75 5.796875 L -8.359375 4.03125 L -4.359375 4.90625 L -4.140625 3.890625 L -7.5625 3.140625 L -7.1875 1.453125 L -3.765625 2.203125 L -3.53125 1.0625 L -7.609375 0.171875 L -7.21875 -1.578125 L -0.796875 -0.171875 Z M -2.40625 7.1875 "/></g></g></g><g fill="#ffffff" fill-opacity="1"><g transform="translate(55.480343, 124.909294)"><g><path d="M -6.546875 5.609375 C -7.441406 5.242188 -8.101562 4.765625 -8.53125 4.171875 C -8.957031 3.578125 -9.035156 2.925781 -8.765625 2.21875 L -8.71875 2.09375 L -6.609375 2.9375 L -6.625 2.96875 C -6.707031 3.175781 -6.703125 3.378906 -6.609375 3.578125 C -6.523438 3.773438 -6.332031 3.929688 -6.03125 4.046875 C -5.726562 4.171875 -5.476562 4.21875 -5.28125 4.1875 C -5.09375 4.164062 -4.972656 4.085938 -4.921875 3.953125 C -4.847656 3.773438 -4.898438 3.597656 -5.078125 3.421875 C -5.253906 3.242188 -5.5625 3.019531 -6 2.75 C -6.519531 2.394531 -6.929688 2.082031 -7.234375 1.8125 C -7.546875 1.539062 -7.78125 1.207031 -7.9375 0.8125 C -8.09375 0.425781 -8.078125 -0.0078125 -7.890625 -0.5 C -7.554688 -1.320312 -7.03125 -1.816406 -6.3125 -1.984375 C -5.59375 -2.160156 -4.765625 -2.0625 -3.828125 -1.6875 C -2.742188 -1.238281 -1.972656 -0.710938 -1.515625 -0.109375 C -1.054688 0.492188 -1.015625 1.257812 -1.390625 2.1875 L -3.5 1.328125 C -3.363281 0.984375 -3.359375 0.710938 -3.484375 0.515625 C -3.617188 0.328125 -3.878906 0.15625 -4.265625 0 C -4.546875 -0.113281 -4.789062 -0.175781 -5 -0.1875 C -5.21875 -0.207031 -5.363281 -0.128906 -5.4375 0.046875 C -5.507812 0.222656 -5.457031 0.394531 -5.28125 0.5625 C -5.113281 0.726562 -4.816406 0.953125 -4.390625 1.234375 C -3.867188 1.585938 -3.445312 1.90625 -3.125 2.1875 C -2.8125 2.46875 -2.578125 2.816406 -2.421875 3.234375 C -2.273438 3.648438 -2.304688 4.117188 -2.515625 4.640625 C -2.828125 5.410156 -3.347656 5.851562 -4.078125 5.96875 C -4.816406 6.09375 -5.640625 5.972656 -6.546875 5.609375 Z M -6.546875 5.609375 "/></g></g></g><g fill="#ffffff" fill-opacity="1"><g transform="translate(46.694054, 121.198813)"><g><path d="M -7.3125 2.046875 L -4.375 -2.703125 L -2.3125 -1.4375 L -5.25 3.3125 L -3.15625 4.625 L -4.1875 6.28125 L -10.421875 2.40625 L -9.390625 0.75 Z M -7.3125 2.046875 "/></g></g></g><g fill="#ffffff" fill-opacity="1"><g transform="translate(38.661868, 115.924039)"><g/></g></g><g fill="#ffffff" fill-opacity="1"><g transform="translate(34.487216, 112.558223)"><g><path d="M -3.96875 -4.296875 L -4.53125 -3.34375 L -2.734375 -1.40625 L -1.75 -1.890625 L -0.078125 -0.078125 L -7.46875 3 L -9.375 0.9375 L -5.703125 -6.1875 Z M -4.328125 -0.640625 L -5.421875 -1.84375 L -6.859375 0.546875 L -6.828125 0.578125 Z M -4.328125 -0.640625 "/></g></g></g><g fill="#ffffff" fill-opacity="1"><g transform="translate(27.729442, 105.01346)"><g><path d="M -8.53125 0.59375 C -9.945312 -1.625 -9.597656 -3.40625 -7.484375 -4.75 C -5.359375 -6.09375 -3.585938 -5.65625 -2.171875 -3.4375 L -0.4375 -0.6875 L -6.796875 3.34375 Z M -3.234375 -1.75 L -3.671875 -2.4375 C -4.210938 -3.289062 -4.945312 -3.425781 -5.875 -2.84375 L -6.421875 -2.5 C -7.335938 -1.914062 -7.523438 -1.195312 -6.984375 -0.34375 L -6.546875 0.34375 Z M -3.234375 -1.75 "/></g></g></g><g fill="#ffffff" fill-opacity="1"><g transform="translate(22.413217, 96.404438)"><g><path d="M -5.890625 -6.578125 C -4.929688 -6.960938 -4.082031 -6.953125 -3.34375 -6.546875 C -2.613281 -6.148438 -2.023438 -5.394531 -1.578125 -4.28125 C -1.140625 -3.164062 -1.046875 -2.207031 -1.296875 -1.40625 C -1.546875 -0.601562 -2.148438 -0.0078125 -3.109375 0.375 L -7.296875 2.046875 L -8.1875 -0.1875 L -4.03125 -1.84375 C -3.632812 -2.007812 -3.363281 -2.242188 -3.21875 -2.546875 C -3.070312 -2.847656 -3.078125 -3.195312 -3.234375 -3.59375 C -3.390625 -3.988281 -3.628906 -4.25 -3.953125 -4.375 C -4.285156 -4.5 -4.644531 -4.484375 -5.03125 -4.328125 L -9.1875 -2.671875 L -10.078125 -4.90625 Z M -5.890625 -6.578125 "/></g></g></g><g clip-path="url(#f63d4470f4)"><g clip-path="url(#9aa4ac1206)"><g clip-path="url(#b8a67a72c7)"><path fill="#ffffff" d="M 8.160156 57.492188 C 8.164062 57.535156 8.199219 57.519531 8.167969 57.554688 L 6.488281 59.453125 C 6.457031 59.484375 6.417969 59.503906 6.375 59.507812 L 5.726562 59.558594 C 5.273438 59.59375 4.878906 59.25 4.839844 58.789062 L 4.8125 58.417969 C 4.777344 57.957031 5.121094 57.554688 5.582031 57.519531 L 7.976562 57.332031 C 8.046875 57.328125 8.113281 57.363281 8.144531 57.425781 C 8.152344 57.449219 8.160156 57.46875 8.160156 57.492188 Z M 6.277344 59.175781 L 7.582031 57.707031 L 5.609375 57.863281 C 5.335938 57.882812 5.132812 58.121094 5.15625 58.390625 L 5.183594 58.765625 C 5.203125 59.035156 5.4375 59.238281 5.699219 59.21875 L 6.277344 59.171875 Z M 6.277344 59.175781 " fill-opacity="1" fill-rule="nonzero"/></g></g></g><g clip-path="url(#b549bd88d4)"><g clip-path="url(#5d00d3e1ac)"><g clip-path="url(#fd13a2854a)"><path fill="#ffffff" d="M 10.21875 55.007812 C 10.042969 55.042969 9.882812 55.132812 9.757812 55.261719 C 8.25 56.988281 6.472656 59.027344 5.195312 60.5625 C 4.886719 60.9375 4.726562 61.144531 4.742188 61.160156 C 4.757812 61.171875 4.945312 60.992188 5.28125 60.640625 C 6.539062 59.324219 8.152344 57.53125 9.59375 55.945312 C 9.734375 55.792969 9.871094 55.628906 10.019531 55.480469 C 10.140625 55.363281 10.320312 55.316406 10.484375 55.351562 C 10.894531 55.433594 11.046875 55.933594 10.761719 56.230469 C 10.65625 56.347656 10.550781 56.464844 10.445312 56.582031 C 10.332031 56.707031 10.429688 56.910156 10.601562 56.898438 C 11.171875 56.859375 11.777344 56.808594 12.367188 56.773438 C 12.484375 56.765625 12.601562 56.765625 12.71875 56.769531 C 14.066406 56.796875 15.265625 57.34375 16.230469 58.28125 C 16.304688 58.351562 16.371094 58.421875 16.441406 58.492188 C 16.523438 58.574219 16.601562 58.660156 16.679688 58.746094 C 16.824219 58.910156 16.964844 59.074219 17.09375 59.25 C 17.140625 59.316406 17.191406 59.386719 17.238281 59.453125 C 17.34375 59.609375 17.441406 59.765625 17.539062 59.925781 C 17.65625 60.132812 17.769531 60.347656 17.867188 60.566406 C 18.699219 62.382812 18.800781 64.445312 18.667969 66.410156 C 18.355469 70.570312 17.039062 74.683594 17.011719 78.808594 C 17 81.023438 17.457031 83.304688 18.863281 85.019531 C 19.363281 85.613281 19.671875 85.890625 20.105469 86.207031 C 20.167969 86.25 20.207031 86.269531 20.210938 86.265625 C 20.214844 86.257812 20.1875 86.226562 20.132812 86.171875 C 20.078125 86.113281 19.992188 86.035156 19.882812 85.921875 C 18.34375 84.425781 17.578125 82.535156 17.40625 80.339844 C 17.21875 77.890625 17.644531 75.460938 18.082031 73.050781 C 18.777344 69.144531 19.984375 64.390625 18.363281 60.578125 C 18.242188 60.292969 18.101562 60.015625 17.949219 59.75 C 17.839844 59.5625 17.722656 59.378906 17.601562 59.203125 C 17.539062 59.117188 17.476562 59.027344 17.414062 58.941406 C 17.335938 58.84375 17.261719 58.746094 17.179688 58.652344 C 17.054688 58.503906 16.925781 58.359375 16.792969 58.21875 C 16.707031 58.136719 16.617188 58.046875 16.53125 57.964844 C 15.460938 56.9375 14.113281 56.355469 12.628906 56.363281 C 12.503906 56.363281 12.375 56.371094 12.25 56.378906 C 11.847656 56.414062 11.433594 56.449219 11.035156 56.480469 C 11.613281 55.84375 11.066406 54.851562 10.21875 55.007812 Z M 10.21875 55.007812 " fill-opacity="1" fill-rule="nonzero"/></g></g></g><g clip-path="url(#208e4bb3ae)"><g clip-path="url(#aeba07171a)"><g clip-path="url(#304c75f454)"><path fill="#ffffff" d="M 10.144531 55.070312 C 9.992188 55.113281 9.847656 55.207031 9.742188 55.328125 C 8.214844 57 6.285156 59.140625 4.589844 61.027344 C 4.480469 61.152344 4.402344 61.3125 4.375 61.476562 C 4.316406 61.792969 4.441406 62.128906 4.691406 62.332031 C 4.882812 62.492188 5.074219 62.652344 5.269531 62.8125 C 7.019531 64.265625 8.804688 65.746094 10.585938 67.214844 C 10.992188 67.582031 11.632812 67.523438 11.960938 67.082031 C 12.242188 66.714844 12.199219 66.164062 11.855469 65.847656 C 13.621094 65.710938 15.25 65.574219 16.960938 65.445312 C 17.011719 65.441406 17.066406 65.429688 17.117188 65.410156 C 17.332031 65.328125 17.480469 65.105469 17.46875 64.875 C 17.414062 64.089844 17.355469 63.304688 17.296875 62.507812 C 17.289062 62.382812 17.179688 62.289062 17.054688 62.300781 C 15.644531 62.410156 14.195312 62.519531 12.769531 62.632812 C 12.746094 62.632812 12.664062 62.640625 12.640625 62.640625 C 12.371094 62.667969 12.105469 62.492188 12.023438 62.234375 C 12.003906 62.1875 11.996094 62.136719 11.992188 62.085938 C 11.972656 61.875 11.957031 61.667969 11.941406 61.457031 C 11.90625 61.019531 11.875 60.582031 11.839844 60.144531 C 11.835938 60.109375 11.835938 60.074219 11.839844 60.039062 C 11.855469 59.785156 12.050781 59.5625 12.296875 59.503906 C 12.332031 59.492188 12.371094 59.488281 12.410156 59.484375 C 12.496094 59.480469 12.582031 59.472656 12.667969 59.464844 C 13.609375 59.390625 14.5625 59.316406 15.5 59.242188 C 15.621094 59.234375 15.714844 59.125 15.707031 59.003906 C 15.695312 58.878906 15.589844 58.789062 15.464844 58.796875 C 14.441406 58.875 13.402344 58.957031 12.375 59.035156 C 12.09375 59.050781 11.820312 59.1875 11.636719 59.402344 C 11.464844 59.601562 11.371094 59.867188 11.386719 60.132812 C 11.429688 60.726562 11.476562 61.316406 11.523438 61.910156 C 11.53125 62.023438 11.535156 62.140625 11.558594 62.253906 C 11.648438 62.742188 12.121094 63.117188 12.617188 63.097656 C 14.03125 62.992188 15.464844 62.875 16.867188 62.765625 C 16.917969 63.488281 16.976562 64.199219 17.023438 64.90625 C 17.023438 64.910156 17.023438 64.914062 17.023438 64.917969 C 17.011719 64.964844 16.972656 65 16.925781 65.003906 C 15.03125 65.15625 13.230469 65.289062 11.265625 65.441406 C 11.207031 65.445312 11.148438 65.472656 11.109375 65.523438 C 11.03125 65.617188 11.042969 65.761719 11.140625 65.839844 C 11.234375 65.917969 11.328125 65.996094 11.421875 66.070312 L 11.492188 66.128906 L 11.507812 66.144531 C 11.585938 66.207031 11.648438 66.289062 11.675781 66.386719 C 11.71875 66.53125 11.691406 66.691406 11.601562 66.8125 C 11.453125 67.015625 11.148438 67.066406 10.945312 66.921875 C 9.136719 65.4375 7.324219 63.945312 5.539062 62.488281 C 5.34375 62.328125 5.148438 62.171875 4.957031 62.011719 C 4.886719 61.957031 4.835938 61.886719 4.804688 61.800781 C 4.757812 61.679688 4.761719 61.542969 4.816406 61.421875 C 4.839844 61.355469 4.886719 61.300781 4.933594 61.25 C 6.429688 59.550781 8.289062 57.425781 9.582031 55.929688 C 9.691406 55.800781 9.800781 55.675781 9.90625 55.554688 C 9.992188 55.445312 10.089844 55.359375 10.222656 55.320312 C 10.582031 55.203125 10.957031 55.46875 10.984375 55.839844 C 10.996094 56 10.941406 56.15625 10.84375 56.277344 C 10.734375 56.402344 10.621094 56.535156 10.519531 56.65625 C 10.472656 56.714844 10.519531 56.804688 10.59375 56.796875 C 12.269531 56.625 13.050781 56.5 10.792969 56.613281 C 10.859375 56.546875 10.921875 56.476562 10.988281 56.40625 C 11.128906 56.25 11.207031 56.046875 11.199219 55.828125 C 11.179688 55.300781 10.65625 54.925781 10.144531 55.070312 Z M 10.144531 55.070312 " fill-opacity="1" fill-rule="nonzero"/></g></g></g></svg>