<svg version="1.1" id="Capa_1" xmlns="http://www.w3.org/2000/svg" xmlns:xlink="http://www.w3.org/1999/xlink" x="0px" y="0px" viewBox="0 0 512 512" style="enable-background:new 0 0 512 512;" xml:space="preserve" width="300" height="300" xmlns:svgjs="http://svgjs.dev/svgjs"><g width="100%" height="100%" transform="matrix(1,0,0,1,0,0)"><g>
	<g>
		<path style="fill-rule: evenodd; clip-rule: evenodd;" d="M40.122,105.966h431.755&#10;&#9;&#9;&#9;c16.567,0,30.122,13.555,30.122,30.122v301.225c0,16.567-13.555,30.122-30.122,30.122H40.122C23.555,467.435,10,453.88,10,437.313&#10;&#9;&#9;&#9;V136.088C10,119.521,23.555,105.966,40.122,105.966z" fill="#93b2fa" fill-opacity="1" data-original-color="#bc9af4ff" stroke="none" stroke-opacity="1"/>
		<path style="fill-rule: evenodd; clip-rule: evenodd;" d="M317.263,105.966h154.614c9.967,0,18.843,4.907,24.334,12.424&#10;&#9;&#9;&#9;L359.947,254.654c-4.803,4.804-9.81,8.02-16.176,10.391l-50.66,18.873c-16.955,6.316-34.93,2.403-47.723-10.391&#10;&#9;&#9;&#9;c-12.794-12.793-16.708-30.768-10.391-47.723l18.873-50.66c2.371-6.366,5.588-11.372,10.391-16.176L317.263,105.966z" fill="#f7a364" fill-opacity="1" data-original-color="#6864f7ff" stroke="none" stroke-opacity="1"/>
		<rect x="55.183" y="151.149" style="fill-rule: evenodd; clip-rule: evenodd;" width="333.858" height="271.102" fill="#ffffff" fill-opacity="1" data-original-color="#ffffffff" stroke="none" stroke-opacity="1"/>
		<path style="fill-rule: evenodd; clip-rule: evenodd;" d="M272.08,151.149h116.961v74.41l-29.094,29.095&#10;&#9;&#9;&#9;c-4.803,4.804-9.81,8.02-16.176,10.391l-50.66,18.873c-16.955,6.316-34.93,2.403-47.723-10.391&#10;&#9;&#9;&#9;c-12.794-12.793-16.708-30.768-10.391-47.723l18.873-50.66c2.371-6.366,5.588-11.372,10.391-16.176L272.08,151.149z" fill="#d2dcfd" fill-opacity="1" data-original-color="#d2dcfdff" stroke="none" stroke-opacity="1"/>
		<polygon style="fill-rule: evenodd; clip-rule: evenodd;" points="442.563,44.565 474.35,76.351 327.997,222.704 &#10;&#9;&#9;&#9;277.337,241.578 296.21,190.917 &#9;&#9;" fill="#ffc000" fill-opacity="1" data-original-color="#93b2f4ff" stroke="none" stroke-opacity="1"/>
		<path style="fill-rule: evenodd; clip-rule: evenodd;" d="M144.626,269.683v99.6c96.522,0,58.45,0,154.972,0v-99.6&#10;&#9;&#9;&#9;l-77.486-65.565L144.626,269.683z" fill="#fdcb50" fill-opacity="1" data-original-color="#fdcb50ff" stroke="none" stroke-opacity="1"/>
		<path style="fill-rule: evenodd; clip-rule: evenodd;" d="M299.598,281.501v-11.819l-61.548-52.078l-3.055,8.199&#10;&#9;&#9;&#9;c-6.316,16.955-2.403,34.93,10.391,47.723c12.793,12.794,30.768,16.708,47.723,10.391L299.598,281.501z" fill="#fd8f01" fill-opacity="1" data-original-color="#fd8f01ff" stroke="none" stroke-opacity="1"/>
		<rect x="199.322" y="305.471" style="fill-rule: evenodd; clip-rule: evenodd;" width="45.58" height="63.812" fill="#d46b5c" fill-opacity="1" data-original-color="#d46b5cff" stroke="none" stroke-opacity="1"/>
		<polygon style="fill-rule: evenodd; clip-rule: evenodd;" points="277.337,241.578 327.997,222.704 344.855,205.846 &#10;&#9;&#9;&#9;313.068,174.059 296.21,190.917 &#9;&#9;" fill="#d2dcfd" fill-opacity="1" data-original-color="#d2dcfdff" stroke="none" stroke-opacity="1"/>
	</g>
	<g>
		
			<path style="fill-rule: evenodd; clip-rule: evenodd; stroke-linecap: round; stroke-linejoin: round; stroke-miterlimit: 2.6131;" d="&#10;&#9;&#9;&#9;M447.12,105.966h24.757c16.568,0,30.122,13.555,30.122,30.122v301.225c0,16.568-13.555,30.123-30.122,30.123H40.122&#10;&#9;&#9;&#9;C23.555,467.435,10,453.881,10,437.313V136.088c0-16.567,13.555-30.122,30.122-30.122H378.4" fill="none" fill-opacity="1" stroke="#052a75" stroke-opacity="1" data-original-stroke-color="#052a75ff" stroke-width="20" data-original-stroke-width="20"/>
		
			<polyline style="fill-rule: evenodd; clip-rule: evenodd; stroke-linecap: round; stroke-linejoin: round; stroke-miterlimit: 2.6131;" points="&#10;&#9;&#9;&#9;389.041,165.049 389.041,422.251 55.183,422.251 55.183,151.149 332.966,151.149 &#9;&#9;" fill="none" fill-opacity="1" stroke="#052a75" stroke-opacity="1" data-original-stroke-color="#052a75ff" stroke-width="20" data-original-stroke-width="20"/>
		
			<polyline style="fill-rule: evenodd; clip-rule: evenodd; stroke-linecap: round; stroke-linejoin: round; stroke-miterlimit: 2.6131;" points="&#10;&#9;&#9;&#9;121.704,289.078 222.112,204.118 322.52,289.078 &#9;&#9;" fill="none" fill-opacity="1" stroke="#052a75" stroke-opacity="1" data-original-stroke-color="#052a75ff" stroke-width="20" data-original-stroke-width="20"/>
		
			<polyline style="fill-rule: evenodd; clip-rule: evenodd; stroke-linecap: round; stroke-linejoin: round; stroke-miterlimit: 2.6131;" points="&#10;&#9;&#9;&#9;299.598,272.645 299.598,369.283 144.626,369.283 144.626,272.645 &#9;&#9;" fill="none" fill-opacity="1" stroke="#052a75" stroke-opacity="1" data-original-stroke-color="#052a75ff" stroke-width="20" data-original-stroke-width="20"/>
		
			<polygon style="fill-rule: evenodd; clip-rule: evenodd; stroke-linecap: round; stroke-linejoin: round; stroke-miterlimit: 2.6131;" points="&#10;&#9;&#9;&#9;442.563,44.565 474.35,76.351 327.997,222.704 277.337,241.578 296.21,190.917 &#9;&#9;" fill="none" fill-opacity="1" stroke="#052a75" stroke-opacity="1" data-original-stroke-color="#052a75ff" stroke-width="20" data-original-stroke-width="20"/>
		
			<line style="fill-rule: evenodd; clip-rule: evenodd; stroke-linecap: round; stroke-linejoin: round; stroke-miterlimit: 2.6131;" x1="434.475" y1="377.068" x2="456.565" y2="377.068" fill="none" fill-opacity="1" stroke="#052a75" stroke-opacity="1" data-original-stroke-color="#052a75ff" stroke-width="20" data-original-stroke-width="20"/>
		
			<line style="fill-rule: evenodd; clip-rule: evenodd; stroke-linecap: round; stroke-linejoin: round; stroke-miterlimit: 2.6131;" x1="434.475" y1="331.884" x2="456.565" y2="331.884" fill="none" fill-opacity="1" stroke="#052a75" stroke-opacity="1" data-original-stroke-color="#052a75ff" stroke-width="20" data-original-stroke-width="20"/>
		
			<line style="fill-rule: evenodd; clip-rule: evenodd; stroke-linecap: round; stroke-linejoin: round; stroke-miterlimit: 2.6131;" x1="434.475" y1="286.701" x2="456.565" y2="286.701" fill="none" fill-opacity="1" stroke="#052a75" stroke-opacity="1" data-original-stroke-color="#052a75ff" stroke-width="20" data-original-stroke-width="20"/>
	</g>
</g><g>
</g><g>
</g><g>
</g><g>
</g><g>
</g><g>
</g><g>
</g><g>
</g><g>
</g><g>
</g><g>
</g><g>
</g><g>
</g><g>
</g><g>
</g></g></svg>