<svg xmlns="http://www.w3.org/2000/svg" xmlns:xlink="http://www.w3.org/1999/xlink" version="1.1" id="Capa_1" x="0px" y="0px" viewBox="0 0 511 511" style="enable-background:new 0 0 511 511;" xml:space="preserve" width="300" height="300" xmlns:svgjs="http://svgjs.dev/svgjs"><g width="100%" height="100%" transform="matrix(1,0,0,1,0,0)"><g id="XMLID_400_">
	
		<rect id="XMLID_101_" x="15" y="48.243" style="stroke-miterlimit: 10;" width="481" height="343.514" fill="none" fill-opacity="1" stroke="#000000" stroke-opacity="1" data-original-stroke-color="#000000ff" stroke-width="20" data-original-stroke-width="30"/>
	
		<line id="XMLID_97_" style="stroke-miterlimit: 10;" x1="255.5" y1="391.757" x2="255.5" y2="462.757" fill="none" fill-opacity="1" stroke="#000000" stroke-opacity="1" data-original-stroke-color="#000000ff" stroke-width="20" data-original-stroke-width="30"/>
	
		<line id="XMLID_95_" style="stroke-miterlimit: 10;" x1="44.5" y1="462.757" x2="462.5" y2="462.757" fill="none" fill-opacity="1" stroke="#000000" stroke-opacity="1" data-original-stroke-color="#000000ff" stroke-width="20" data-original-stroke-width="30"/>
	<polyline id="XMLID_121_" style="stroke-miterlimit: 10;" points="77.5,149.167 &#10;&#9;&#9;77.5,110.5 116.899,110.5 &#9;" fill="none" fill-opacity="1" stroke="#000000" stroke-opacity="1" data-original-stroke-color="#000000ff" stroke-width="20" data-original-stroke-width="30"/>
	<polyline id="XMLID_361_" style="stroke-miterlimit: 10;" points="77.5,289.833 &#10;&#9;&#9;77.5,328.5 116.899,328.5 &#9;" fill="none" fill-opacity="1" stroke="#000000" stroke-opacity="1" data-original-stroke-color="#000000ff" stroke-width="20" data-original-stroke-width="30"/>
	<polyline id="XMLID_132_" style="stroke-miterlimit: 10;" points="430.899,149.167 &#10;&#9;&#9;430.899,110.5 391.5,110.5 &#9;" fill="none" fill-opacity="1" stroke="#000000" stroke-opacity="1" data-original-stroke-color="#000000ff" stroke-width="20" data-original-stroke-width="30"/>
	<polyline id="XMLID_131_" style="stroke-miterlimit: 10;" points="430.899,289.833 &#10;&#9;&#9;430.899,328.5 391.5,328.5 &#9;" fill="none" fill-opacity="1" stroke="#000000" stroke-opacity="1" data-original-stroke-color="#000000ff" stroke-width="20" data-original-stroke-width="30"/>
	<polygon id="XMLID_136_" style="stroke-miterlimit: 10;" points="313.71,134 203.333,134 &#10;&#9;&#9;155.624,194 155.624,280 355.376,280 355.376,194 &#9;" fill="none" fill-opacity="1" stroke="#000000" stroke-opacity="1" data-original-stroke-color="#000000ff" stroke-width="20" data-original-stroke-width="30"/>
	<polyline id="XMLID_133_" style="stroke-miterlimit: 10;" points="203.333,134 &#10;&#9;&#9;255.188,194 255.188,280 &#9;" fill="none" fill-opacity="1" stroke="#000000" stroke-opacity="1" data-original-stroke-color="#000000ff" stroke-width="20" data-original-stroke-width="30"/>
	
		<line id="XMLID_135_" style="stroke-miterlimit: 10;" x1="255.188" y1="194" x2="355.376" y2="194" fill="none" fill-opacity="1" stroke="#000000" stroke-opacity="1" data-original-stroke-color="#000000ff" stroke-width="20" data-original-stroke-width="30"/>
</g></g></svg>