<svg version="1.1" id="svg1809" xml:space="preserve" width="300" height="300" viewBox="0 0 682.66669 682.66669" xmlns="http://www.w3.org/2000/svg" xmlns:svg="http://www.w3.org/2000/svg" xmlns:xlink="http://www.w3.org/1999/xlink" xmlns:svgjs="http://svgjs.dev/svgjs"><g width="100%" height="100%" transform="matrix(1,0,0,1,0,0)"><defs id="defs1813"><clipPath clipPathUnits="userSpaceOnUse" id="clipPath1827"><path d="M 0,512 H 512 V 0 H 0 Z" id="path1825" fill="#c90f16" fill-opacity="1" data-original-color="#000000ff" stroke="none" stroke-opacity="1"/></clipPath></defs><g id="g1815" transform="matrix(1.3333333,0,0,-1.3333333,0,682.66667)"><g id="g1817" transform="translate(121,106)"><path d="M 0,0 30,-30 90,30" style="stroke-linecap: round; stroke-linejoin: round; stroke-miterlimit: 10; stroke-dasharray: none;" id="path1819" fill="none" fill-opacity="1" stroke="#c90f16" stroke-opacity="1" data-original-stroke-color="#000000ff" stroke-width="20" data-original-stroke-width="30"/></g><g id="g1821"><g id="g1823" clip-path="url(#clipPath1827)"><g id="g1829" transform="translate(391,316)"><path d="m 0,0 v 91 l -90,90 H -360 V -301 H 0 v 61" style="stroke-linecap: round; stroke-linejoin: round; stroke-miterlimit: 10; stroke-dasharray: none;" id="path1831" fill="none" fill-opacity="1" stroke="#c90f16" stroke-opacity="1" data-original-stroke-color="#000000ff" stroke-width="20" data-original-stroke-width="30"/></g><g id="g1833" transform="translate(391,407)"><path d="M 0,0 H -90 V 90" style="stroke-linecap: round; stroke-linejoin: round; stroke-miterlimit: 10; stroke-dasharray: none;" id="path1835" fill="none" fill-opacity="1" stroke="#c90f16" stroke-opacity="1" data-original-stroke-color="#000000ff" stroke-width="20" data-original-stroke-width="30"/></g><g id="g1837" transform="translate(481,136)"><path d="m 0,0 h -180 v 150 c 0,16.568 13.432,30 30,30 h 120 c 16.568,0 30,-13.432 30,-30 z" style="stroke-linecap: round; stroke-linejoin: round; stroke-miterlimit: 10; stroke-dasharray: none;" id="path1839" fill="none" fill-opacity="1" stroke="#c90f16" stroke-opacity="1" data-original-stroke-color="#000000ff" stroke-width="20" data-original-stroke-width="30"/></g><g id="g1841" transform="translate(91,376)"><path d="M 0,0 H 150" style="stroke-linecap: round; stroke-linejoin: round; stroke-miterlimit: 10; stroke-dasharray: none;" id="path1843" fill="none" fill-opacity="1" stroke="#c90f16" stroke-opacity="1" data-original-stroke-color="#000000ff" stroke-width="20" data-original-stroke-width="30"/></g><g id="g1845" transform="translate(91,316)"><path d="M 0,0 H 150" style="stroke-linecap: round; stroke-linejoin: round; stroke-miterlimit: 10; stroke-dasharray: none;" id="path1847" fill="none" fill-opacity="1" stroke="#c90f16" stroke-opacity="1" data-original-stroke-color="#000000ff" stroke-width="20" data-original-stroke-width="30"/></g><g id="g1849" transform="translate(91,256)"><path d="M 0,0 H 150" style="stroke-linecap: round; stroke-linejoin: round; stroke-miterlimit: 10; stroke-dasharray: none;" id="path1851" fill="none" fill-opacity="1" stroke="#c90f16" stroke-opacity="1" data-original-stroke-color="#000000ff" stroke-width="20" data-original-stroke-width="30"/></g><g id="g1853" transform="translate(331,76)"><path d="M 0,0 V 60" style="stroke-linecap: round; stroke-linejoin: round; stroke-miterlimit: 10; stroke-dasharray: none;" id="path1855" fill="none" fill-opacity="1" stroke="#c90f16" stroke-opacity="1" data-original-stroke-color="#000000ff" stroke-width="20" data-original-stroke-width="30"/></g><g id="g1857" transform="translate(451,136)"><path d="M 0,0 V -60" style="stroke-linecap: round; stroke-linejoin: round; stroke-miterlimit: 10; stroke-dasharray: none;" id="path1859" fill="none" fill-opacity="1" stroke="#c90f16" stroke-opacity="1" data-original-stroke-color="#000000ff" stroke-width="20" data-original-stroke-width="30"/></g><g id="g1861" transform="translate(421,226)"><path d="m 0,0 c 0,-16.568 -13.432,-30 -30,-30 -16.568,0 -30,13.432 -30,30 0,16.568 13.432,30 30,30 C -13.432,30 0,16.568 0,0 Z" style="stroke-linecap: round; stroke-linejoin: round; stroke-miterlimit: 10; stroke-dasharray: none;" id="path1863" fill="none" fill-opacity="1" stroke="#c90f16" stroke-opacity="1" data-original-stroke-color="#000000ff" stroke-width="20" data-original-stroke-width="30"/></g><g id="g1865" transform="translate(301,76)"><path d="M 0,0 H 180" style="stroke-linecap: round; stroke-linejoin: round; stroke-miterlimit: 10; stroke-dasharray: none;" id="path1867" fill="none" fill-opacity="1" stroke="#c90f16" stroke-opacity="1" data-original-stroke-color="#000000ff" stroke-width="20" data-original-stroke-width="30"/></g></g></g></g></g></svg>