<svg id="Capa_1" enable-background="new 0 0 512 512" height="300" viewBox="0 0 512 512" width="300" xmlns="http://www.w3.org/2000/svg" version="1.1" xmlns:xlink="http://www.w3.org/1999/xlink" xmlns:svgjs="http://svgjs.dev/svgjs"><g width="100%" height="100%" transform="matrix(1,0,0,1,0,0)"><g><g><path d="m256 22.47 79.558 188.467-79.558 173.743h-195.33c-8.28 0-15-6.71-15-15v-221.26z" fill="#ff8609" fill-opacity="1" data-original-color="#cceeffff" stroke="none" stroke-opacity="1"/></g><path d="m466.33 148.42v221.26c0 8.29-6.72 15-15 15h-195.33v-362.21z" fill="#99a3ff" fill-opacity="1" data-original-color="#99ddffff" stroke="none" stroke-opacity="1"/><path d="m256 .01 11.526 24.384-11.526 8.076-233.29 139.7c-2.42 1.44-5.07 2.13-7.7 2.13-5.1 0-10.07-2.6-12.88-7.29-4.25-7.11-1.94-16.32 5.16-20.58l241-144.31c2.32-1.41 5.01-2.11 7.71-2.11z" fill="#ffd466" fill-opacity="1" data-original-color="#ff6666ff" stroke="none" stroke-opacity="1"/><path d="m512 159.32c0 2.62-.69 5.28-2.13 7.69-2.81 4.69-7.78 7.29-12.88 7.29-2.63 0-5.28-.69-7.7-2.13l-233.29-139.7v-32.46c2.7 0 5.39.7 7.71 2.11l241 144.31c4.69 2.81 7.29 7.79 7.29 12.89z" fill="#ff7700" fill-opacity="1" data-original-color="#e62e6bff" stroke="none" stroke-opacity="1"/><g><path d="m256 221.99 32.825 126.48-32.825 163.52c-24.81 0-45-20.19-45-45v-230c0-8.28 6.72-15 15-15z" fill="#ffcf52" fill-opacity="1" data-original-color="#b4524cff" stroke="none" stroke-opacity="1"/></g><path d="m301 236.99v230c0 24.81-20.19 45-45 45v-290h30c8.28 0 15 6.72 15 15z" fill="#e0a900" fill-opacity="1" data-original-color="#8d2823ff" stroke="none" stroke-opacity="1"/><path d="m256 141.52 48.534 66.221-48.534 44.019h-109.57c-8.28 0-15-6.72-15-15v-80.24c0-8.29 6.72-15 15-15z" fill="#405580" fill-opacity="1" data-original-color="#405580ff" stroke="none" stroke-opacity="1"/><path d="m380.57 236.76v39.23c0 8.28-6.72 15-15 15s-15-6.72-15-15c0-13.36-10.87-24.23-24.23-24.23h-70.34v-110.24h29.33c25.45 0 49.37 9.9 67.35 27.9 17.98 17.97 27.89 41.89 27.89 67.34z" fill="#1f3259" fill-opacity="1" data-original-color="#1f3259ff" stroke="none" stroke-opacity="1"/></g></g></svg>