<svg version="1.1" id="svg4035" xml:space="preserve" width="300" height="300" viewBox="0 0 682.66669 682.66669" xmlns="http://www.w3.org/2000/svg" xmlns:svg="http://www.w3.org/2000/svg" xmlns:xlink="http://www.w3.org/1999/xlink" xmlns:svgjs="http://svgjs.dev/svgjs"><g width="100%" height="100%" transform="matrix(1,0,0,1,0,0)"><defs id="defs4039"><clipPath clipPathUnits="userSpaceOnUse" id="clipPath4049"><path d="M 0,512 H 512 V 0 H 0 Z" id="path4047" fill="#000000" fill-opacity="1" data-original-color="#000000ff" stroke="none" stroke-opacity="1"/></clipPath></defs><g id="g4041" transform="matrix(1.3333333,0,0,-1.3333333,0,682.66667)"><g id="g4043"><g id="g4045" clip-path="url(#clipPath4049)"><g id="g4051" transform="translate(474.7139,313.2236)"><path d="m 0,0 h -437.428 c -4.846,0 -8.775,3.929 -8.775,8.774 v 19.499 c 0,4.847 3.929,8.776 8.775,8.776 L 0,37.049 c 4.847,0 8.775,-3.929 8.775,-8.776 V 8.774 C 8.775,3.929 4.847,0 0,0 Z" style="stroke-linecap: round; stroke-linejoin: round; stroke-miterlimit: 10; stroke-dasharray: none;" id="path4053" fill="none" fill-opacity="1" stroke="#000000" stroke-opacity="1" data-original-stroke-color="#000000ff" stroke-width="20" data-original-stroke-width="15"/></g><g id="g4055" transform="translate(387.3877,232.4609)"><path d="m 0,0 h -262.746 c -5.129,0 -9.287,4.157 -9.287,9.287 v 13.397 c 0,5.128 4.158,9.287 9.287,9.287 L 0,31.971 c 5.129,0 9.287,-4.159 9.287,-9.287 V 9.287 C 9.287,4.157 5.129,0 0,0 Z" style="stroke-linecap: round; stroke-linejoin: round; stroke-miterlimit: 10; stroke-dasharray: none;" id="path4057" fill="none" fill-opacity="1" stroke="#000000" stroke-opacity="1" data-original-stroke-color="#000000ff" stroke-width="20" data-original-stroke-width="15"/></g><path d="M 382.59,46.738 H 129.44 v 185.723 h 253.15 z" style="stroke-linecap: round; stroke-linejoin: round; stroke-miterlimit: 10; stroke-dasharray: none;" id="path4059" fill="none" fill-opacity="1" stroke="#000000" stroke-opacity="1" data-original-stroke-color="#000000ff" stroke-width="20" data-original-stroke-width="15"/><g id="g4061" transform="translate(196.1357,160.8691)"><path d="M 0,0 H 186.454 V 35.797 H -66.696 V 0 h 31.67" style="stroke-linecap: round; stroke-linejoin: round; stroke-miterlimit: 10; stroke-dasharray: none;" id="path4063" fill="none" fill-opacity="1" stroke="#000000" stroke-opacity="1" data-original-stroke-color="#000000ff" stroke-width="20" data-original-stroke-width="15"/></g><path d="M 382.59,232.463 H 129.44 v -35.797 h 253.15 z" style="stroke-linecap: round; stroke-linejoin: round; stroke-miterlimit: 10; stroke-dasharray: none;" id="path4065" fill="none" fill-opacity="1" stroke="#000000" stroke-opacity="1" data-original-stroke-color="#000000ff" stroke-width="20" data-original-stroke-width="15"/><g id="g4067" transform="translate(256,109.0137)"><path d="m 0,0 c 4.412,0 7.987,-3.576 7.987,-7.988 0,-4.411 -3.575,-7.988 -7.987,-7.988 -4.411,0 -7.987,3.577 -7.987,7.988 C -7.987,-3.576 -4.411,0 0,0" style="fill-rule: nonzero;" id="path4069" fill="#000000" fill-opacity="1" data-original-color="#000000ff" stroke="none" stroke-opacity="1"/></g><g id="g4071" transform="translate(231.585,91.8594)"><path d="m 0,0 c -1.519,2.797 -2.382,6.001 -2.382,9.407 0,3.213 0.768,6.245 2.129,8.926" style="stroke-linecap: round; stroke-linejoin: round; stroke-miterlimit: 10; stroke-dasharray: none;" id="path4073" fill="none" fill-opacity="1" stroke="#000000" stroke-opacity="1" data-original-stroke-color="#000000ff" stroke-width="20" data-original-stroke-width="15"/></g><g id="g4075" transform="translate(212.3662,72.377)"><path d="m 0,0 c -5.12,8.456 -8.067,18.375 -8.067,28.982 0,10.608 2.947,20.527 8.068,28.984" style="stroke-linecap: round; stroke-linejoin: round; stroke-miterlimit: 10; stroke-dasharray: none;" id="path4077" fill="none" fill-opacity="1" stroke="#000000" stroke-opacity="1" data-original-stroke-color="#000000ff" stroke-width="20" data-original-stroke-width="15"/></g><g id="g4079" transform="translate(280.415,91.8594)"><path d="m 0,0 c 1.52,2.797 2.383,6.001 2.383,9.407 0,3.213 -0.768,6.245 -2.129,8.926" style="stroke-linecap: round; stroke-linejoin: round; stroke-miterlimit: 10; stroke-dasharray: none;" id="path4081" fill="none" fill-opacity="1" stroke="#000000" stroke-opacity="1" data-original-stroke-color="#000000ff" stroke-width="20" data-original-stroke-width="15"/></g><g id="g4083" transform="translate(299.6348,72.377)"><path d="m 0,0 c 5.12,8.456 8.067,18.375 8.067,28.982 0,10.608 -2.947,20.527 -8.068,28.984" style="stroke-linecap: round; stroke-linejoin: round; stroke-miterlimit: 10; stroke-dasharray: none;" id="path4085" fill="none" fill-opacity="1" stroke="#000000" stroke-opacity="1" data-original-stroke-color="#000000ff" stroke-width="20" data-original-stroke-width="15"/></g><g id="g4087" transform="translate(476.6328,7.3672)"><path d="m 0,0 h -441.266 v 21.284 c 0,9.989 8.099,18.087 18.088,18.087 h 405.09 C -8.099,39.371 0,31.273 0,21.284 Z" style="stroke-linecap: round; stroke-linejoin: round; stroke-miterlimit: 10; stroke-dasharray: none;" id="path4089" fill="none" fill-opacity="1" stroke="#000000" stroke-opacity="1" data-original-stroke-color="#000000ff" stroke-width="20" data-original-stroke-width="15"/></g><g id="g4091" transform="translate(393.1494,404.752)"><path d="m 0,0 72.065,-54.479 h -418.429 l 200.138,151.32 c 5.362,4.054 12.762,4.054 18.123,0.001 L -27.711,20.949" style="stroke-linecap: round; stroke-linejoin: round; stroke-miterlimit: 10; stroke-dasharray: none;" id="path4093" fill="none" fill-opacity="1" stroke="#000000" stroke-opacity="1" data-original-stroke-color="#000000ff" stroke-width="20" data-original-stroke-width="15"/></g><path d="M 448.268,46.738 H 63.733 v 266.485 h 384.535 z" style="stroke-linecap: round; stroke-linejoin: round; stroke-miterlimit: 10; stroke-dasharray: none;" id="path4095" fill="none" fill-opacity="1" stroke="#000000" stroke-opacity="1" data-original-stroke-color="#000000ff" stroke-width="20" data-original-stroke-width="15"/></g></g></g></g></svg>