<?xml version="1.0" encoding="utf-8"?>
<svg xmlns="http://www.w3.org/2000/svg" viewBox="0 0 240 40" xmlns:bx="https://boxy-svg.com" width="240px" height="40px"><defs><bx:export><bx:file format="svg" excluded="true"/><bx:file format="svg" path="Untitled 2.svg" excluded="true"/><bx:file format="svg" path="Untitled 3.svg" excluded="true"/></bx:export><bx:export><bx:file format="svg" excluded="true"/><bx:file format="svg" path="Untitled 4.svg"/></bx:export></defs><g id="Layer_1" transform="matrix(1, 0, 0, 1, -461.898383, -223.930484)"><g id="svg-1" transform="matrix(1.054883, 0, 0, 1.534114, -71.455346, -162.503863)" style=""><g id="svg-2" transform="matrix(1.049572, 0, 0, 1.165936, -67.406945, -60.424119)" style=""><g id="group-1" transform="matrix(0.903199, 0, 0, 0.421904, 128.525866, 175.88106)" style=""><polygon points="463.297 262.584 489.155 224.979 499.987 240.541 499.987 232.752 506.794 232.752 506.794 249.609 516.267 262.584 508.268 262.584 489.776 235.785 471.578 262.584 463.297 262.584" fill="none" stroke="#fff" stroke-miterlimit="10" stroke-width="2" style="stroke-width: 2;"/><path d="M 526.92 229.013 L 532.547 229.013 C 534.067 228.828 535.565 229.615 536.657 231.168 C 537.654 232.928 538.149 235.184 538.037 237.463 L 538.037 254.781 C 538.149 257.06 537.654 259.316 536.657 261.077 C 535.565 262.628 534.067 263.415 532.547 263.232 L 526.92 263.232 L 526.92 229.013 Z M 532.473 258.352 C 532.994 258.405 533.504 258.117 533.864 257.568 C 534.233 256.837 534.406 255.931 534.348 255.027 L 534.348 237.218 C 534.406 236.312 534.233 235.409 533.864 234.678 C 533.494 234.156 532.985 233.898 532.473 233.97 L 530.608 233.97 L 530.608 258.352 L 532.473 258.352 Z" fill="#333" style="stroke-width: 1;"/><path d="M 543.285 229.013 L 548.279 229.013 L 552.093 263.216 L 548.405 263.216 L 547.731 256.443 L 547.731 256.536 L 543.516 256.536 L 542.884 263.216 L 539.47 263.216 L 543.285 229.013 Z M 547.299 251.887 L 545.624 234.97 L 544.011 251.902 L 547.299 251.887 Z" fill="#333" style="stroke-width: 1;"/><path d="M 553.863 229.013 L 557.541 229.013 L 557.541 258.352 L 563.599 258.352 L 563.599 263.216 L 553.863 263.216 L 553.863 229.013 Z" fill="#333" style="stroke-width: 1;"/><path d="M 565.38 229.013 L 569.058 229.013 L 569.058 258.352 L 575.127 258.352 L 575.127 263.216 L 565.391 263.216 L 565.38 229.013 Z" fill="#333" style="stroke-width: 1;"/><path d="M 579.869 229.013 L 584.852 229.013 L 588.667 263.216 L 584.99 263.216 L 584.316 256.428 L 584.316 256.52 L 580.101 256.52 L 579.469 263.216 L 576.054 263.216 L 579.869 229.013 Z M 583.884 251.887 L 582.24 234.955 L 582.176 234.955 L 580.575 251.887 L 583.884 251.887 Z" fill="#333" style="stroke-width: 1;"/><path d="M 591.08 261.493 C 590.096 259.691 589.607 257.417 589.711 255.119 L 589.711 253.165 L 593.187 253.165 L 593.187 255.52 C 593.187 257.736 593.819 258.845 595.094 258.845 C 595.627 258.899 596.147 258.604 596.517 258.044 C 596.888 257.284 597.06 256.356 597.002 255.427 C 597.021 254.101 596.791 252.791 596.338 251.64 C 595.647 250.16 594.814 248.831 593.862 247.701 C 592.619 246.196 591.552 244.408 590.701 242.405 C 590.081 240.766 589.762 238.92 589.773 237.048 C 589.677 234.77 590.177 232.524 591.175 230.767 C 592.253 229.195 593.744 228.38 595.263 228.536 C 596.758 228.377 598.224 229.195 599.268 230.767 C 600.24 232.575 600.721 234.845 600.616 237.141 L 600.616 238.588 L 597.138 238.588 L 597.138 236.786 C 597.191 235.875 597.023 234.966 596.664 234.216 C 596.317 233.656 595.811 233.36 595.295 233.416 C 594.072 233.416 593.462 234.509 593.462 236.679 C 593.456 237.911 593.693 239.118 594.146 240.157 C 594.843 241.627 595.681 242.943 596.634 244.068 C 597.891 245.56 598.96 247.362 599.794 249.394 C 600.399 251.138 600.699 253.073 600.668 255.027 C 600.771 257.362 600.263 259.667 599.246 261.477 C 598.16 263.041 596.67 263.858 595.148 263.725 C 593.633 263.892 592.144 263.074 591.08 261.493 Z" fill="#333" style="stroke-width: 1;"/><path d="M 608.15 229.013 L 613.703 229.013 C 615.203 228.808 616.696 229.484 617.855 230.891 C 618.812 232.54 619.282 234.676 619.161 236.833 L 619.161 238.203 C 619.199 239.687 618.997 241.162 618.572 242.513 C 618.198 243.606 617.56 244.455 616.779 244.899 L 616.779 245.007 C 618.614 245.915 619.53 248.301 619.53 252.133 L 619.53 255.074 C 619.636 257.283 619.123 259.461 618.108 261.108 C 616.956 262.611 615.434 263.363 613.893 263.186 L 608.107 263.186 L 608.15 229.013 Z M 613.271 242.866 C 613.878 242.935 614.476 242.634 614.926 242.035 C 615.346 241.243 615.541 240.245 615.474 239.249 L 615.474 237.418 C 615.526 236.472 615.371 235.528 615.03 234.724 C 614.673 234.136 614.145 233.828 613.608 233.893 L 611.828 233.893 L 611.828 242.943 L 613.271 242.866 Z M 613.935 258.26 C 614.47 258.322 614.998 258.042 615.378 257.491 C 615.745 256.728 615.91 255.799 615.842 254.873 L 615.842 251.995 C 615.923 250.847 615.73 249.693 615.294 248.731 C 614.802 248.066 614.138 247.742 613.472 247.839 L 611.828 247.839 L 611.828 258.352 L 613.935 258.26 Z" fill="#333" style="stroke-width: 1;"/><path d="M 621.669 229.013 L 631.711 229.013 L 631.711 233.97 L 625.389 233.97 L 625.389 243.02 L 630.447 243.02 L 630.447 247.823 L 625.389 247.823 L 625.389 258.337 L 631.711 258.337 L 631.711 263.216 L 621.669 263.216 L 621.669 229.013 Z" fill="#333" style="stroke-width: 1;"/><path d="M 634.619 261.493 C 633.635 259.691 633.146 257.417 633.249 255.119 L 633.249 253.165 L 636.727 253.165 L 636.727 255.52 C 636.727 257.736 637.37 258.845 638.634 258.845 C 639.167 258.905 639.689 258.61 640.056 258.044 C 640.426 257.284 640.599 256.356 640.541 255.427 C 640.56 254.101 640.33 252.791 639.877 251.64 C 639.189 250.155 638.355 248.829 637.401 247.701 C 636.158 246.196 635.091 244.408 634.24 242.405 C 633.628 240.762 633.315 238.917 633.334 237.048 C 633.234 234.767 633.74 232.518 634.746 230.767 C 635.821 229.199 637.308 228.385 638.823 228.536 C 640.318 228.376 641.786 229.193 642.827 230.767 C 643.805 232.571 644.285 234.844 644.176 237.141 L 644.176 238.588 L 640.699 238.588 L 640.699 236.786 C 640.748 235.877 640.585 234.97 640.235 234.216 C 639.884 233.654 639.375 233.36 638.855 233.416 C 637.633 233.416 637.022 234.509 637.022 236.679 C 637.016 237.911 637.253 239.118 637.707 240.157 C 638.405 241.63 639.246 242.947 640.203 244.068 C 641.463 245.558 642.533 247.362 643.365 249.394 C 643.97 251.138 644.27 253.073 644.239 255.027 C 644.342 257.362 643.834 259.667 642.817 261.477 C 641.724 263.056 640.221 263.874 638.687 263.725 C 637.172 263.891 635.684 263.073 634.619 261.493 Z" fill="#333" style="stroke-width: 1;"/><path d="M 649.213 233.97 L 645.367 233.97 L 645.367 229.013 L 656.747 229.013 L 656.747 233.97 L 652.89 233.97 L 652.89 263.216 L 649.213 263.216 L 649.213 233.97 Z" fill="#333" style="stroke-width: 1;"/><path d="M 666.715 229.013 L 671.699 229.013 L 675.524 263.216 L 671.836 263.216 L 671.172 256.428 L 671.172 256.52 L 666.957 256.52 L 666.315 263.216 L 662.9 263.216 L 666.715 229.013 Z M 670.729 251.887 L 669.096 234.955 L 669.022 234.955 L 667.421 251.887 L 670.729 251.887 Z" fill="#fff" style="stroke-width: 1;"/><path d="M 677.336 229.013 L 682.952 229.013 C 684.474 228.836 685.973 229.621 687.073 231.168 C 688.066 232.931 688.557 235.186 688.442 237.463 L 688.442 254.781 C 688.557 257.058 688.066 259.313 687.073 261.077 C 685.973 262.622 684.474 263.407 682.952 263.232 L 677.336 263.232 L 677.336 229.013 Z M 682.89 258.352 C 683.409 258.399 683.917 258.11 684.28 257.568 C 684.649 256.837 684.822 255.931 684.765 255.027 L 684.765 237.218 C 684.822 236.312 684.649 235.409 684.28 234.678 C 683.917 234.132 683.409 233.846 682.89 233.893 L 681.013 233.893 L 681.013 258.352 L 682.89 258.352 Z" fill="#fff" style="stroke-width: 1;"/><path d="M 692.151 261.493 C 691.143 259.708 690.641 257.427 690.749 255.119 L 690.749 228.952 L 694.427 228.952 L 694.427 255.52 C 694.369 256.425 694.54 257.33 694.912 258.06 C 695.707 259.081 696.898 259.081 697.694 258.06 C 698.061 257.327 698.233 256.423 698.178 255.52 L 698.178 229.013 L 701.73 229.013 L 701.73 255.182 C 701.836 257.491 701.33 259.772 700.317 261.554 C 697.977 264.531 694.491 264.531 692.151 261.554 L 692.151 261.493 Z" fill="#fff" style="stroke-width: 1;"/><polygon points="477.816 262.969 489.534 246.098 501.736 262.969 477.816 262.969" fill="#fff" style="stroke-width: 1;"/></g></g></g></g></svg>