<?xml version="1.0" encoding="utf-8"?>
<svg xmlns="http://www.w3.org/2000/svg" viewBox="0 0 240 40" xmlns:bx="https://boxy-svg.com" width="240px" height="40px"><defs><bx:export><bx:file format="svg" excluded="true"/><bx:file format="svg" path="Untitled 2.svg" excluded="true"/><bx:file format="svg" path="Untitled 3.svg" excluded="true"/><bx:file format="svg" path="Untitled 4.svg"/></bx:export></defs><g id="Layer_1" transform="matrix(1, 0, 0, 1, -461.898383, -223.930484)"><g id="svg-1" transform="matrix(1.054883, 0, 0, 1.534114, -71.455346, -162.503863)" style=""><g id="svg-2" transform="matrix(1.049572, 0, 0, 1.165936, -67.406945, -60.424119)" style=""><polygon points="548.633 286.296 571.896 270.371 581.641 276.961 581.641 273.663 587.765 273.663 587.765 280.801 596.287 286.296 589.092 286.296 572.455 274.947 556.084 286.296 548.633 286.296" fill="none" stroke="#d23b3c" stroke-miterlimit="10" stroke-width="2" style="stroke-width: 1.6;"/><path d="M 604.966 272.503 L 610.028 272.503 C 611.394 272.425 612.743 272.758 613.725 273.415 C 614.622 274.161 615.067 275.116 614.967 276.081 L 614.967 283.415 C 615.067 284.38 614.622 285.335 613.725 286.081 C 612.743 286.738 611.394 287.071 610.028 286.993 L 604.966 286.993 L 604.966 272.503 Z M 609.962 284.927 C 610.43 284.949 610.888 284.827 611.213 284.594 C 611.545 284.285 611.7 283.902 611.649 283.519 L 611.649 275.977 C 611.7 275.594 611.545 275.211 611.213 274.901 C 610.88 274.681 610.422 274.571 609.962 274.602 L 608.284 274.602 L 608.284 284.927 L 609.962 284.927 Z" style="stroke-width: 0.8; fill: rgb(255, 255, 255);"/><path d="M 619.688 272.503 L 624.181 272.503 L 627.613 286.987 L 624.295 286.987 L 623.688 284.119 L 623.688 284.158 L 619.896 284.158 L 619.328 286.987 L 616.256 286.987 L 619.688 272.503 Z M 623.3 282.189 L 621.792 275.025 L 620.342 282.196 L 623.3 282.189 Z" style="stroke-width: 0.8; fill: rgb(255, 255, 255);"/><path d="M 629.205 272.503 L 632.514 272.503 L 632.514 284.927 L 637.965 284.927 L 637.965 286.987 L 629.205 286.987 L 629.205 272.503 Z" style="stroke-width: 0.8; fill: rgb(255, 255, 255);"/><path d="M 639.567 272.503 L 642.875 272.503 L 642.875 284.927 L 648.335 284.927 L 648.335 286.987 L 639.576 286.987 L 639.567 272.503 Z" style="stroke-width: 0.8; fill: rgb(255, 255, 255);"/><path d="M 652.601 272.503 L 657.085 272.503 L 660.517 286.987 L 657.209 286.987 L 656.602 284.112 L 656.602 284.151 L 652.81 284.151 L 652.241 286.987 L 649.17 286.987 L 652.601 272.503 Z M 656.213 282.189 L 654.734 275.019 L 654.677 275.019 L 653.237 282.189 L 656.213 282.189 Z" style="stroke-width: 0.8; fill: rgb(255, 255, 255);"/><path d="M 662.688 286.257 C 661.802 285.494 661.362 284.532 661.455 283.558 L 661.455 282.73 L 664.584 282.73 L 664.584 283.727 C 664.584 284.666 665.153 285.135 666.3 285.135 C 666.778 285.158 667.247 285.034 667.579 284.796 C 667.912 284.475 668.067 284.082 668.015 283.688 C 668.032 283.126 667.826 282.572 667.418 282.085 C 666.796 281.458 666.046 280.896 665.19 280.416 C 664.072 279.779 663.112 279.022 662.347 278.174 C 661.789 277.48 661.502 276.698 661.512 275.905 C 661.425 274.941 661.876 273.989 662.773 273.246 C 663.743 272.58 665.084 272.235 666.451 272.301 C 667.796 272.234 669.115 272.58 670.054 273.246 C 670.929 274.011 671.361 274.973 671.267 275.944 L 671.267 276.557 L 668.139 276.557 L 668.139 275.794 C 668.185 275.409 668.034 275.024 667.712 274.706 C 667.399 274.469 666.944 274.344 666.48 274.367 C 665.38 274.367 664.83 274.83 664.83 275.749 C 664.825 276.27 665.039 276.782 665.446 277.222 C 666.074 277.844 666.827 278.402 667.684 278.878 C 668.815 279.51 669.778 280.273 670.528 281.133 C 671.071 281.872 671.341 282.691 671.314 283.519 C 671.406 284.508 670.949 285.484 670.035 286.25 C 669.058 286.913 667.717 287.259 666.347 287.202 C 664.984 287.273 663.645 286.927 662.688 286.257 Z" style="stroke-width: 0.8; fill: rgb(255, 255, 255);"/><path d="M 678.045 272.503 L 683.041 272.503 C 684.39 272.416 685.734 272.702 686.776 273.298 C 687.637 273.996 688.06 274.901 687.951 275.814 L 687.951 276.394 C 687.985 277.023 687.803 277.648 687.42 278.219 C 687.085 278.682 686.51 279.042 685.809 279.23 L 685.809 279.275 C 687.458 279.66 688.283 280.67 688.283 282.293 L 688.283 283.538 C 688.378 284.474 687.916 285.396 687.003 286.094 C 685.967 286.731 684.597 287.049 683.211 286.974 L 678.007 286.974 L 678.045 272.503 Z M 682.652 278.369 C 683.198 278.398 683.736 278.271 684.14 278.017 C 684.519 277.682 684.695 277.26 684.633 276.837 L 684.633 276.062 C 684.681 275.662 684.541 275.262 684.235 274.921 C 683.913 274.672 683.439 274.542 682.955 274.569 L 681.353 274.569 L 681.353 278.402 L 682.652 278.369 Z M 683.249 284.888 C 683.731 284.914 684.205 284.795 684.548 284.562 C 684.877 284.239 685.026 283.846 684.965 283.454 L 684.965 282.235 C 685.037 281.749 684.863 281.261 684.472 280.853 C 684.029 280.572 683.432 280.434 682.832 280.475 L 681.353 280.475 L 681.353 284.927 L 683.249 284.888 Z" style="stroke-width: 0.8; fill: rgb(255, 255, 255);"/><path d="M 690.207 272.503 L 699.242 272.503 L 699.242 274.602 L 693.554 274.602 L 693.554 278.434 L 698.104 278.434 L 698.104 280.468 L 693.554 280.468 L 693.554 284.92 L 699.242 284.92 L 699.242 286.987 L 690.207 286.987 L 690.207 272.503 Z" style="stroke-width: 0.8; fill: rgb(255, 255, 255);"/><path d="M 701.858 286.257 C 700.972 285.494 700.532 284.532 700.626 283.558 L 700.626 282.73 L 703.754 282.73 L 703.754 283.727 C 703.754 284.666 704.332 285.135 705.47 285.135 C 705.949 285.161 706.419 285.036 706.75 284.796 C 707.082 284.475 707.237 284.082 707.186 283.688 C 707.202 283.126 706.996 282.572 706.588 282.085 C 705.969 281.456 705.219 280.894 704.361 280.416 C 703.243 279.779 702.282 279.022 701.517 278.174 C 700.966 277.478 700.685 276.697 700.701 275.905 C 700.612 274.94 701.067 273.987 701.972 273.246 C 702.939 272.582 704.277 272.237 705.64 272.301 C 706.986 272.233 708.305 272.579 709.243 273.246 C 710.122 274.01 710.555 274.972 710.456 275.944 L 710.456 276.557 L 707.328 276.557 L 707.328 275.794 C 707.372 275.41 707.225 275.026 706.911 274.706 C 706.594 274.469 706.136 274.344 705.669 274.367 C 704.569 274.367 704.019 274.83 704.019 275.749 C 704.014 276.27 704.228 276.782 704.636 277.222 C 705.264 277.846 706.021 278.404 706.882 278.878 C 708.015 279.509 708.978 280.273 709.726 281.133 C 710.27 281.872 710.54 282.691 710.513 283.519 C 710.605 284.508 710.148 285.484 709.233 286.25 C 708.25 286.919 706.897 287.265 705.517 287.202 C 704.155 287.272 702.816 286.926 701.858 286.257 Z" style="stroke-width: 0.8; fill: rgb(255, 255, 255);"/><path d="M 714.987 274.602 L 711.527 274.602 L 711.527 272.503 L 721.765 272.503 L 721.765 274.602 L 718.296 274.602 L 718.296 286.987 L 714.987 286.987 L 714.987 274.602 Z" style="stroke-width: 0.8; fill: rgb(255, 255, 255);"/><path d="M 730.733 272.503 L 735.217 272.503 L 738.658 286.987 L 735.34 286.987 L 734.743 284.112 L 734.743 284.151 L 730.951 284.151 L 730.373 286.987 L 727.302 286.987 L 730.733 272.503 Z M 734.345 282.189 L 732.876 275.019 L 732.809 275.019 L 731.368 282.189 L 734.345 282.189 Z" fill="#d23b3c" style="stroke-width: 0.8;"/><path d="M 740.289 272.503 L 745.341 272.503 C 746.71 272.428 748.059 272.76 749.048 273.415 C 749.942 274.162 750.383 275.117 750.28 276.081 L 750.28 283.415 C 750.383 284.379 749.942 285.334 749.048 286.081 C 748.059 286.735 746.71 287.068 745.341 286.993 L 740.289 286.993 L 740.289 272.503 Z M 745.285 284.927 C 745.752 284.946 746.209 284.825 746.536 284.594 C 746.868 284.285 747.023 283.902 746.972 283.519 L 746.972 275.977 C 747.023 275.594 746.868 275.211 746.536 274.901 C 746.209 274.671 745.752 274.55 745.285 274.569 L 743.597 274.569 L 743.597 284.927 L 745.285 284.927 Z" fill="#d23b3c" style="stroke-width: 0.8;"/><path d="M 753.617 286.257 C 752.71 285.501 752.259 284.535 752.356 283.558 L 752.356 272.477 L 755.665 272.477 L 755.665 283.727 C 755.611 284.111 755.767 284.494 756.101 284.803 C 756.817 285.235 757.888 285.235 758.604 284.803 C 758.934 284.493 759.089 284.11 759.04 283.727 L 759.04 272.503 L 762.234 272.503 L 762.234 283.584 C 762.329 284.562 761.875 285.528 760.964 286.283 C 758.858 287.544 755.723 287.544 753.617 286.283 L 753.617 286.257 Z" fill="#d23b3c" style="stroke-width: 0.8;"/><polygon points="561.696 286.459 572.237 279.314 583.215 286.459 561.696 286.459" fill="#d23b3c" style="stroke-width: 0.8;"/></g></g></g></svg>